<svg width="138" height="152" viewBox="0 0 138 152" fill="none" xmlns="http://www.w3.org/2000/svg">
<path d="M117.387 43.4506L110.371 24.8615V17.2352H27.7024V25.1666L19.9426 42.707V13.098L26.5012 9.49457H111.172L117.387 15.7863V43.4506ZM21.7729 14.2419V33.7652L25.7958 24.6709V15.4049H112.278V24.6899L115.481 33.0979V16.4917L110.39 11.4011H26.9969L21.7729 14.2419Z" fill="white"/>
<path d="M114.966 13.67H113.06V8.00745L107.493 2.44026H30.3719L24.6522 8.15998V12.1066H22.7456V7.37828L29.5902 0.533691H108.274L114.966 7.22576V13.67Z" fill="white"/>
<path d="M107.226 139.961H32.8693L16.1677 129.418L0 92.6401L13.346 88.2359L14.9475 70.7907L20.4194 67.7402L32.4117 21.6965H107.149L119.542 68.3313L123.927 70.7335L126.062 89.2845L137.273 93.212L120.972 127.873L107.226 139.961ZM33.3459 138.055H106.52L119.561 126.615L134.642 94.3369L124.308 90.6954L122.135 71.9347L117.902 69.6277L105.605 23.6031H33.8035L22.04 68.9795L16.7397 71.9156L15.1191 89.6086L2.59294 93.784L17.6739 128.102L33.3459 138.055Z" fill="white"/>
<path d="M25.4147 151.801H0.343262V93.2121H2.24983V149.894H23.5081V133.555H25.4147V151.801Z" fill="white"/>
<path d="M136.911 151.801H112.926V132.85H114.833V149.894H135.004V93.765H136.911V151.801Z" fill="white"/>
<path d="M114.585 130.028H23.7368V123.87L36.6634 116.148V24.3657H38.0933V116.968L25.1667 124.689V128.598H113.155V122.726L102.383 116.987V22.6498H103.813V116.129L114.585 121.887V130.028Z" fill="white"/>
<path d="M109.494 119.027H31.6682V120.934H109.494V119.027Z" fill="white"/>
<path d="M103.107 56.0339H37.3877V57.4638H103.107V56.0339Z" fill="white"/>
<path d="M103.107 62.1731H37.3877V63.603H103.107V62.1731Z" fill="white"/>
<path d="M103.107 68.3122H37.3877V69.7421H103.107V68.3122Z" fill="white"/>
<path d="M85.8339 81.5438H52.8502L42.936 69.4752L44.0418 68.5791L53.5175 80.1138H85.1857L95.3858 68.541L96.4535 69.4942L85.8339 81.5438Z" fill="white"/>
<path d="M86.2013 80.6709L84.8076 80.9906L93.7853 120.126L95.179 119.807L86.2013 80.6709Z" fill="white"/>
<path d="M52.26 80.6603L44.7078 119.805L46.5798 120.166L54.132 81.0215L52.26 80.6603Z" fill="white"/>
<path d="M37.3878 70.6193H15.8435V72.0492H37.3878V70.6193Z" fill="white"/>
<path d="M34.5091 85.1283H22.9934V71.3438H24.4233V83.6983H33.0792V71.3438H34.5091V85.1283Z" fill="white"/>
<path d="M28.1029 96.2244L26.1201 92.2206L14.0706 89.6086L14.3756 88.2168L27.0924 90.9813L29.3803 95.5952L28.1029 96.2244Z" fill="white"/>
<path d="M37.3878 95.1949H2.47852V96.6249H37.3878V95.1949Z" fill="white"/>
<path d="M122.783 70.6193H101.239V72.0492H122.783V70.6193Z" fill="white"/>
<path d="M118.627 85.1283H107.111V71.3438H108.541V83.6983H117.197V71.3438H118.627V85.1283Z" fill="white"/>
<path d="M110.505 96.2244L109.228 95.5952L111.515 90.9813L124.251 88.2168L124.556 89.6086L112.488 92.2206L110.505 96.2244Z" fill="white"/>
<path d="M136.148 95.1949H101.239V96.6249H136.148V95.1949Z" fill="white"/>
</svg>
