<svg width="130" height="33" viewBox="0 0 130 33" fill="none" xmlns="http://www.w3.org/2000/svg">
<path d="M128.887 16.7379C125.527 11.3619 116.961 12.8757 116.961 15.2241C116.961 17.5724 113.594 19.0936 112.087 18.7539C112.087 18.7539 106.039 0.691091 69.0719 0.942169C66.9747 0.942169 62.7728 0.942169 60.6904 0.942169C23.7229 0.691091 17.6748 18.7539 17.6748 18.7539C16.1979 19.0936 12.8084 17.5798 12.8084 15.2241C12.8084 12.8684 4.2348 11.3619 0.874785 16.7379C-2.48523 22.1139 3.90249 19.4038 18.8564 22.1139C33.2564 24.6985 46.7777 31.714 47.7598 32.253C47.0731 31.7583 40.4564 27.0247 36.1586 24.6321C36.1586 24.6321 46.2386 23.7016 64.8848 23.7016C84.8824 23.7016 93.6037 24.6321 93.6037 24.6321C89.3058 27.0247 82.7113 31.7583 81.9729 32.253C82.955 31.7435 96.4837 24.6985 110.876 22.1139C125.86 19.4038 132.247 22.1139 128.887 16.7379ZM72.7642 21.4419H64.8848C66.8861 14.5004 76.5378 11.3619 80.6806 10.365C84.7052 9.39019 82.896 5.88988 82.8221 5.66834C83.088 5.77911 88.6634 8.32681 80.3483 12.1594C71.8338 16.0659 72.7273 21.4419 72.7273 21.4419H72.7642ZM82.512 21.4419C75.3415 19.0936 83.0732 12.8167 86.544 10.2394C90.0148 7.66219 85.3107 4.5311 85.3107 4.5311C106.815 10.8007 108.831 19.5367 108.831 19.5367C108.831 19.5367 89.6455 23.8345 82.475 21.4419H82.512Z" fill="#1A1A1A"/>
</svg>
