<svg width="125" height="202" viewBox="0 0 125 202" fill="none" xmlns="http://www.w3.org/2000/svg">
<path d="M63 65V201.5" stroke="black"/>
<circle cx="63" cy="65" r="3" fill="black"/>
<path d="M39.6494 114.008C39.9094 113.304 40.2588 112.734 40.6974 112.298C41.1353 111.864 41.6256 111.582 42.1683 111.452C42.7088 111.321 43.2623 111.36 43.8285 111.569C44.3971 111.779 44.8452 112.11 45.173 112.562C45.4978 113.015 45.6856 113.548 45.7363 114.163C45.7861 114.779 45.6815 115.438 45.4223 116.14C45.1622 116.844 44.8133 117.413 44.3754 117.847C43.9353 118.28 43.445 118.562 42.9045 118.693C42.3632 118.826 41.8083 118.788 41.2397 118.578C40.6734 118.369 40.2275 118.039 39.9019 117.588C39.5741 117.136 39.3852 116.602 39.3354 115.985C39.2847 115.371 39.3893 114.712 39.6494 114.008ZM40.0558 114.158C39.822 114.791 39.726 115.379 39.7677 115.922C39.8073 116.464 39.9668 116.93 40.2464 117.321C40.5252 117.714 40.9055 118 41.3874 118.178C41.8693 118.356 42.3436 118.387 42.8102 118.272C43.2759 118.159 43.7016 117.908 44.087 117.521C44.4694 117.135 44.7779 116.624 45.0125 115.989C45.2447 115.36 45.3425 114.774 45.306 114.231C45.2665 113.689 45.1073 113.221 44.8286 112.828C44.5498 112.435 44.1672 112.148 43.6809 111.969C43.199 111.791 42.7247 111.759 42.2581 111.875C41.7907 111.992 41.3658 112.244 40.9834 112.63C40.5987 113.016 40.2895 113.525 40.0558 114.158Z" fill="black"/>
<path d="M31.0044 113.382L30.6169 113.166L32.9664 108.962C33.2078 108.53 33.5235 108.201 33.9134 107.974C34.3021 107.749 34.728 107.638 35.1911 107.639C35.651 107.641 36.1093 107.77 36.566 108.025C37.0206 108.279 37.3703 108.602 37.6151 108.994C37.8588 109.388 37.9871 109.811 38.0002 110.263C38.0112 110.714 37.8956 111.153 37.6532 111.582L35.3038 115.785L34.9163 115.569L37.2536 111.387C37.4581 111.021 37.5574 110.65 37.5514 110.272C37.5435 109.893 37.439 109.539 37.2379 109.21C37.0357 108.883 36.7424 108.612 36.3581 108.397C35.9737 108.182 35.5892 108.074 35.2045 108.073C34.8186 108.075 34.4633 108.172 34.1386 108.365C33.8118 108.556 33.5462 108.835 33.3417 109.201L31.0044 113.382Z" fill="black"/>
<path d="M31.9354 105.127L27.4788 110.874L25.708 109.501C25.345 109.219 25.0877 108.906 24.9361 108.561C24.7844 108.215 24.7363 107.862 24.7919 107.501C24.8459 107.141 25.0021 106.795 25.2603 106.462C25.5157 106.133 25.8107 105.897 26.1454 105.755C26.4786 105.615 26.8306 105.577 27.2014 105.639C27.5702 105.701 27.9361 105.872 28.2991 106.154L29.8846 107.383L29.63 107.711L28.0529 106.488C27.7573 106.259 27.4619 106.119 27.1668 106.066C26.8717 106.014 26.5911 106.044 26.3251 106.155C26.0576 106.268 25.8187 106.461 25.6083 106.732C25.3965 107.005 25.2684 107.286 25.224 107.575C25.1781 107.866 25.2173 108.15 25.3417 108.426C25.4642 108.701 25.6732 108.953 25.9688 109.182L27.3804 110.276L31.5846 104.855L31.9354 105.127ZM27.5559 105.901L28.1609 102.2L28.565 102.513L27.9516 106.208L27.5559 105.901Z" fill="black"/>
<path d="M22.8285 96.5566L17.1616 101.115L14.6242 97.9605L14.9452 97.7023L17.2043 100.511L19.5536 98.6212L17.4302 95.9814L17.7512 95.7232L19.8745 98.363L22.2293 96.4689L19.9167 93.5939L20.2377 93.3357L22.8285 96.5566Z" fill="black"/>
<path d="M12.6472 94.935L14.3678 91.4006L14.3477 91.3671L10.4197 91.215L10.1442 90.7549L14.4918 90.9373L16.3839 87.0188L16.6594 87.4788L14.9571 91.0022L14.9771 91.0358L18.8869 91.1989L19.1623 91.6589L14.8038 91.4583L12.9226 95.3951L12.6472 94.935Z" fill="black"/>
<path d="M8.50839 81.223L8.68105 81.6435C8.47128 81.7808 8.28491 81.9533 8.12194 82.161C7.95678 82.3696 7.82791 82.6042 7.73533 82.8649C7.63966 83.1242 7.59271 83.3994 7.59449 83.6905C7.59627 83.9815 7.65921 84.2781 7.7833 84.5803C7.96496 85.0227 8.25048 85.3815 8.63987 85.6566C9.02618 85.9305 9.49295 86.0856 10.0402 86.122C10.5865 86.1561 11.1893 86.0378 11.8485 85.7672C12.512 85.4947 13.0262 85.1543 13.3909 84.7461C13.7547 84.3357 13.9777 83.8973 14.0601 83.431C14.1393 82.9633 14.0881 82.5083 13.9065 82.066C13.7824 81.7637 13.6198 81.508 13.4187 81.2989C13.2155 81.0906 12.9898 80.9273 12.7416 80.8091C12.4904 80.6896 12.2327 80.6137 11.9686 80.5814C11.7046 80.5491 11.4497 80.5578 11.2039 80.6075L11.0312 80.187C11.3226 80.1237 11.6269 80.1075 11.9442 80.1385C12.2605 80.1672 12.5708 80.2497 12.8749 80.3859C13.176 80.5207 13.451 80.7136 13.6999 80.9646C13.9458 81.2142 14.146 81.5274 14.3007 81.9041C14.5309 82.4647 14.5913 83.017 14.482 83.561C14.3705 84.1058 14.1051 84.6064 13.6859 85.0626C13.2658 85.5166 12.7086 85.8861 12.0144 86.1712C11.3202 86.4563 10.6641 86.5849 10.0461 86.5572C9.4273 86.5272 8.88785 86.3571 8.42779 86.047C7.96555 85.7378 7.61932 85.3028 7.38911 84.7422C7.23443 84.3655 7.15791 84.0015 7.15954 83.6502C7.15808 83.2977 7.21706 82.9676 7.33647 82.6601C7.45279 82.3513 7.61338 82.0755 7.81823 81.8327C8.02219 81.5877 8.25224 81.3845 8.50839 81.223Z" fill="black"/>
<path d="M12.5049 76.7438L5.45064 78.5131L5.34265 78.0826L11.9973 76.4134L11.1334 72.969L11.5329 72.8688L12.5049 76.7438Z" fill="black"/>
<path d="M3.40226 65.8969L3.35712 65.4553L8.1475 64.9656C8.63972 64.9153 9.09064 64.9846 9.50023 65.1736C9.90747 65.3628 10.2435 65.6473 10.5085 66.0272C10.7708 66.4049 10.9285 66.8541 10.9817 67.3746C11.0347 67.8927 10.9711 68.3644 10.7908 68.7898C10.6083 69.2154 10.3357 69.5633 9.97301 69.8336C9.61011 70.1016 9.18361 70.2594 8.6935 70.3071L3.90312 70.7968L3.85798 70.3552L8.62363 69.868C9.04049 69.8254 9.4018 69.6933 9.70755 69.4717C10.0131 69.2477 10.2429 68.9588 10.3972 68.6052C10.549 68.2517 10.6026 67.8559 10.5578 67.4179C10.513 66.9798 10.3805 66.6031 10.1603 66.2877C9.93767 65.9725 9.65424 65.7373 9.30997 65.5821C8.96545 65.4246 8.58477 65.3671 8.16791 65.4097L3.40226 65.8969Z" fill="black"/>
<path d="M5.43606 57.7416C4.98258 57.7578 4.60838 57.9247 4.31343 58.2423C4.01861 58.5576 3.85864 58.9765 3.83352 59.4991C3.81659 59.8515 3.86657 60.1679 3.98345 60.4485C4.10032 60.729 4.26733 60.9527 4.48448 61.1196C4.70163 61.2865 4.95563 61.3769 5.24649 61.3909C5.4333 61.3998 5.60408 61.3725 5.75883 61.3088C5.91133 61.2427 6.04987 61.1462 6.17447 61.0195C6.29671 60.8926 6.40594 60.7403 6.50219 60.5624C6.59843 60.3845 6.68494 60.1872 6.76172 59.9705L7.034 59.1872C7.12983 58.9192 7.23765 58.6732 7.35745 58.449C7.47736 58.2225 7.61708 58.0278 7.7766 57.8648C7.93387 57.6993 8.11528 57.5741 8.32082 57.4892C8.52648 57.4019 8.76055 57.3645 9.02303 57.3772C9.40611 57.3956 9.74422 57.5114 10.0374 57.7245C10.3306 57.9353 10.556 58.227 10.7135 58.5996C10.8687 58.9697 10.9345 59.4007 10.9109 59.8925C10.8884 60.3607 10.7896 60.7649 10.6144 61.1048C10.4394 61.4425 10.2063 61.705 9.91529 61.8925C9.62187 62.0799 9.29009 62.1777 8.91994 62.186L8.94176 61.732C9.24321 61.7228 9.50793 61.6395 9.73592 61.4822C9.96165 61.3223 10.1404 61.1046 10.2722 60.8289C10.4039 60.5532 10.4785 60.2344 10.4959 59.8726C10.5146 59.4824 10.4649 59.1352 10.3468 58.8309C10.2264 58.5264 10.0507 58.2845 9.81997 58.1052C9.5892 57.9258 9.31539 57.8285 8.99852 57.8133C8.74313 57.801 8.5215 57.8508 8.33362 57.9626C8.14574 58.0745 7.97991 58.2455 7.83613 58.4756C7.69246 58.7033 7.56024 58.9885 7.43949 59.3311L7.14337 60.1666C6.94348 60.7258 6.68734 61.1484 6.37496 61.4344C6.06269 61.7181 5.68427 61.8492 5.23971 61.8278C4.86609 61.8099 4.5398 61.6947 4.26086 61.4822C3.97954 61.2695 3.7643 60.989 3.61514 60.6405C3.46608 60.2897 3.4019 59.8991 3.42258 59.4687C3.44337 59.036 3.54567 58.6581 3.72947 58.3351C3.91091 58.012 4.15171 57.7605 4.45189 57.5806C4.7497 57.4005 5.08474 57.3088 5.45702 57.3054L5.43606 57.7416Z" fill="black"/>
<path d="M4.34259 52.7011L11.513 53.9166L11.4388 54.3542L4.2684 53.1387L4.34259 52.7011Z" fill="black"/>
<path d="M5.41733 47.7701L12.5201 47.3841L12.5342 47.3364L6.78625 43.1461L6.91931 42.6966L13.1479 47.2774L13.0028 47.7677L5.28426 48.2196L5.41733 47.7701Z" fill="black"/>
<path d="M14.9497 42.4608L8.32614 39.4574L9.99796 35.7704L10.3731 35.9405L8.88462 39.2232L11.6304 40.4683L13.0295 37.3829L13.4047 37.553L12.0056 40.6384L14.7579 41.8864L16.2816 38.5261L16.6568 38.6962L14.9497 42.4608Z" fill="black"/>
<path d="M22.0515 30.6201L20.806 32.2067L15.0853 27.716L16.4273 26.0065C16.8483 25.4702 17.3222 25.1003 17.8491 24.8969C18.3759 24.6935 18.9313 24.6569 19.5152 24.7872C20.0987 24.9142 20.6859 25.2111 21.2766 25.6778C21.8803 26.1548 22.3147 26.6673 22.5797 27.2154C22.8428 27.762 22.9325 28.3245 22.8487 28.9028C22.7631 29.4797 22.4973 30.0521 22.0515 30.6201ZM20.7561 31.6032L21.7165 30.3797C22.117 29.8694 22.3532 29.3596 22.4251 28.8502C22.495 28.3393 22.4093 27.8446 22.1679 27.3662C21.9279 26.8859 21.5409 26.4376 21.0069 26.0214C20.4817 25.6092 19.964 25.3427 19.4538 25.2221C18.9417 25.1 18.455 25.1257 17.9936 25.2993C17.5338 25.4711 17.116 25.7962 16.7403 26.2748L15.6834 27.6212L20.7561 31.6032Z" fill="black"/>
<path d="M26.1612 26.03L21.1435 20.7654L24.074 17.9724L24.3582 18.2705L21.749 20.7573L23.8291 22.9398L26.2814 20.6024L26.5656 20.9006L24.1133 23.2379L26.1983 25.4255L28.8691 22.8799L29.1533 23.1781L26.1612 26.03Z" fill="black"/>
<path d="M31.3283 14.819C31.0336 14.474 30.6701 14.2849 30.2379 14.2516C29.8076 14.217 29.3801 14.3524 28.9554 14.6579C28.669 14.8638 28.4523 15.0999 28.3054 15.3659C28.1585 15.632 28.0873 15.9019 28.0917 16.1757C28.0962 16.4495 28.1834 16.7046 28.3535 16.941C28.4627 17.0929 28.5903 17.2096 28.7365 17.2911C28.8831 17.3693 29.0448 17.4178 29.2216 17.4365C29.3969 17.4533 29.5842 17.444 29.7833 17.4087C29.9825 17.3733 30.1908 17.3183 30.4082 17.2436L31.1908 16.9694C31.4602 16.8777 31.7199 16.809 31.97 16.7633C32.2219 16.7163 32.4613 16.7045 32.6881 16.728C32.9155 16.7482 33.1264 16.8123 33.3208 16.9204C33.5171 17.027 33.6919 17.1871 33.8454 17.4004C34.0693 17.7118 34.189 18.0485 34.2045 18.4106C34.2219 18.7714 34.1338 19.1293 33.9401 19.4844C33.7469 19.8362 33.4505 20.1558 33.0507 20.4434C32.6702 20.717 32.2923 20.8911 31.9172 20.9655C31.5439 21.0386 31.1934 21.0195 30.8655 20.9083C30.5363 20.7951 30.2533 20.5962 30.0165 20.3116L30.3855 20.0462C30.5803 20.2765 30.8102 20.4319 31.0752 20.5125C31.3408 20.5898 31.6224 20.5943 31.9203 20.5259C32.2181 20.4575 32.514 20.3175 32.8081 20.106C33.1252 19.878 33.3662 19.623 33.5309 19.3412C33.6943 19.0575 33.7744 18.7695 33.7713 18.4773C33.7681 18.185 33.6739 17.9101 33.4887 17.6526C33.3394 17.445 33.1625 17.3024 32.9581 17.2249C32.7536 17.1475 32.5166 17.124 32.247 17.1546C31.9793 17.1838 31.6738 17.2577 31.3304 17.3764L30.4921 17.6644C29.93 17.8558 29.4397 17.9182 29.0215 17.8516C28.6051 17.7836 28.267 17.5689 28.0072 17.2076C27.7888 16.9039 27.676 16.5768 27.6688 16.2262C27.6602 15.8737 27.7459 15.5306 27.9259 15.1971C28.1078 14.8621 28.3737 14.5688 28.7235 14.3172C29.0752 14.0643 29.4347 13.9093 29.8019 13.8522C30.1677 13.7932 30.5145 13.8253 30.8421 13.9483C31.1683 14.0694 31.4486 14.2747 31.6829 14.564L31.3283 14.819Z" fill="black"/>
<path d="M34.5943 10.8268L38.104 17.1966L37.7152 17.4109L34.2055 11.041L34.5943 10.8268Z" fill="black"/>
<path d="M44.9712 8.71358C44.8298 8.5048 44.6563 8.3177 44.4505 8.15226C44.2439 7.98463 44.012 7.85253 43.7546 7.75597C43.4986 7.65633 43.224 7.6061 42.9308 7.60528C42.6397 7.60358 42.338 7.66472 42.0255 7.7887C41.548 7.97815 41.1741 8.27165 40.904 8.66919C40.6351 9.06365 40.4879 9.53341 40.4622 10.0785C40.4378 10.6205 40.5504 11.2061 40.8001 11.8355C41.0472 12.4582 41.3658 12.9597 41.756 13.3397C42.1462 13.7197 42.5775 13.9625 43.0498 14.068C43.5234 14.1705 44.0078 14.1235 44.5029 13.9271C44.9452 13.7516 45.2963 13.4938 45.5562 13.1539C45.8183 12.813 45.9696 12.4143 46.01 11.9576C46.0504 11.501 45.9632 11.0083 45.7484 10.4797L45.9211 10.4914L43.6237 11.4029L43.4718 11.02L46.0267 10.0064L46.1786 10.3893C46.4152 10.9856 46.5046 11.5449 46.4469 12.067C46.3904 12.586 46.2067 13.0409 45.8957 13.4318C45.5869 13.8217 45.175 14.1189 44.6601 14.3232C44.0791 14.5536 43.5147 14.6107 42.9668 14.4945C42.4189 14.3782 41.922 14.108 41.4761 13.6838C41.0316 13.2566 40.6709 12.6941 40.3941 11.9966C40.1863 11.4728 40.066 10.9704 40.033 10.4894C40.0001 10.0084 40.0499 9.56581 40.1825 9.16174C40.3142 8.75546 40.5227 8.40149 40.808 8.09983C41.0924 7.79597 41.4459 7.56023 41.8684 7.3926C42.2513 7.24068 42.621 7.16787 42.9775 7.17414C43.3331 7.17822 43.6644 7.2429 43.9714 7.36817C44.2796 7.49037 44.555 7.6549 44.7976 7.86177C45.0392 8.06643 45.2379 8.29449 45.3937 8.54595L44.9712 8.71358Z" fill="black"/>
<path d="M53.5824 4.27864L55.1825 11.3732L54.7598 11.4685L48.813 6.18066L48.7714 6.19004L50.1941 12.4982L49.7611 12.5959L48.161 5.50134L48.5871 5.40524L54.5356 10.7L54.5771 10.6906L53.1529 4.37552L53.5824 4.27864Z" fill="black"/>
<path d="M63.4837 1.33701L63.4837 13.2972H63.0966L63.0966 1.33701L63.4837 1.33701Z" fill="black"/>
<path d="M79.1522 9.59219C78.9871 10.3243 78.7158 10.9353 78.3383 11.4254C77.9613 11.9131 77.5124 12.2572 76.9915 12.4576C76.473 12.6586 75.9192 12.6927 75.3303 12.5599C74.7391 12.4265 74.2513 12.1575 73.8669 11.7529C73.4853 11.3465 73.229 10.8422 73.0979 10.2398C72.9673 9.63521 72.9843 8.96801 73.1489 8.23823C73.314 7.50615 73.585 6.89624 73.962 6.40851C74.3412 5.9213 74.7901 5.57722 75.3087 5.37625C75.8278 5.17297 76.3829 5.138 76.9742 5.27134C77.5631 5.40416 78.0486 5.67262 78.4307 6.07671C78.8151 6.48134 79.0726 6.98596 79.2032 7.59058C79.3343 8.1929 79.3173 8.8601 79.1522 9.59219ZM78.7296 9.49687C78.878 8.83869 78.8958 8.24326 78.783 7.71059C78.6724 7.17844 78.4528 6.73698 78.1242 6.3862C77.7962 6.03311 77.3815 5.80006 76.8804 5.68703C76.3793 5.57401 75.905 5.60538 75.4576 5.78115C75.0108 5.95461 74.6218 6.25883 74.2908 6.69381C73.9625 7.127 73.7239 7.67384 73.5749 8.33433C73.4275 8.9879 73.4077 9.58165 73.5154 10.1156C73.6259 10.6477 73.8452 11.0904 74.1733 11.4434C74.5014 11.7965 74.9183 12.0301 75.4241 12.1442C75.9252 12.2572 76.3995 12.2258 76.8469 12.05C77.2947 11.872 77.6828 11.5663 78.0111 11.1331C78.3416 10.7005 78.5811 10.1551 78.7296 9.49687Z" fill="black"/>
<path d="M87.8044 9.07458L88.217 9.23828L86.4412 13.7142C86.2588 14.1741 85.9892 14.5422 85.6326 14.8184C85.2768 15.0924 84.8693 15.2593 84.4101 15.319C83.9539 15.3775 83.4827 15.3102 82.9963 15.1173C82.5122 14.9252 82.123 14.6511 81.8288 14.2949C81.5355 13.9366 81.3525 13.5342 81.2801 13.0877C81.2098 12.6422 81.2666 12.191 81.4504 11.7341L83.2262 7.25818L83.6388 7.42188L81.8721 11.8747C81.7176 12.2642 81.6681 12.6457 81.7237 13.0192C81.7814 13.3936 81.9316 13.7308 82.1743 14.0309C82.4178 14.3287 82.7442 14.5588 83.1535 14.7212C83.5628 14.8836 83.9582 14.9398 84.3396 14.89C84.7219 14.8379 85.0614 14.6949 85.3579 14.4611C85.6566 14.2281 85.8833 13.9169 86.0378 13.5274L87.8044 9.07458Z" fill="black"/>
<path d="M87.9675 17.3809L91.6289 11.097L93.565 12.2251C93.9619 12.4563 94.2582 12.7331 94.454 13.0554C94.6498 13.3778 94.7439 13.7217 94.7364 14.0872C94.7301 14.4507 94.6209 14.8145 94.4087 15.1786C94.199 15.5386 93.9375 15.811 93.6244 15.9957C93.3125 16.1784 92.9686 16.263 92.5929 16.2495C92.2192 16.2373 91.8339 16.1155 91.437 15.8843L89.7035 14.8742L89.9126 14.5152L91.637 15.52C91.9602 15.7083 92.2715 15.8088 92.5709 15.8216C92.8703 15.8344 93.1446 15.7682 93.3937 15.6229C93.6439 15.4755 93.8555 15.2535 94.0283 14.9569C94.2023 14.6583 94.2923 14.3627 94.2983 14.0703C94.3055 13.7758 94.2292 13.4999 94.0696 13.2425C93.912 12.9863 93.6716 12.764 93.3484 12.5757L91.8051 11.6764L88.3511 17.6043L87.9675 17.3809ZM92.207 16.037L92.0944 19.7855L91.6526 19.528L91.7744 15.785L92.207 16.037Z" fill="black"/>
<path d="M98.1233 24.6777L103.141 19.4132L106.071 22.2062L105.787 22.5044L103.178 20.0176L101.098 22.2L103.55 24.5374L103.266 24.8356L100.814 22.4982L98.7288 24.6858L101.4 27.2314L101.115 27.5296L98.1233 24.6777Z" fill="black"/>
<path d="M108.43 24.9451L107.189 28.6752L107.214 28.7058L111.128 28.3396L111.461 28.7594L107.127 29.1508L105.767 33.2843L105.434 32.8645L106.658 29.1477L106.633 29.1171L102.736 29.47L102.403 29.0502L106.75 28.6755L108.096 24.5253L108.43 24.9451Z" fill="black"/>
<path d="M114.337 37.9931L114.11 37.599C114.3 37.4353 114.462 37.2397 114.597 37.0124C114.733 36.7839 114.83 36.5344 114.887 36.2638C114.948 35.9941 114.958 35.7151 114.918 35.4268C114.878 35.1386 114.777 34.8528 114.614 34.5695C114.376 34.1549 114.045 33.8369 113.623 33.6153C113.204 33.3947 112.721 33.3023 112.174 33.3384C111.628 33.3764 111.046 33.573 110.428 33.9281C109.806 34.2855 109.341 34.6906 109.033 35.1433C108.727 35.598 108.563 36.0619 108.543 36.535C108.526 37.009 108.637 37.4533 108.875 37.8679C109.038 38.1512 109.232 38.3833 109.459 38.5642C109.688 38.7439 109.933 38.876 110.195 38.9605C110.46 39.0459 110.725 39.0872 110.991 39.0845C111.257 39.0818 111.509 39.0396 111.746 38.958L111.972 39.3521C111.692 39.4532 111.392 39.5093 111.074 39.5204C110.756 39.5335 110.438 39.4926 110.119 39.3977C109.802 39.3036 109.504 39.1486 109.225 38.9326C108.948 38.7174 108.708 38.4333 108.505 38.0803C108.203 37.5548 108.071 37.0153 108.108 36.4617C108.146 35.9069 108.344 35.3758 108.699 34.8684C109.056 34.363 109.559 33.9233 110.21 33.5494C110.861 33.1754 111.494 32.9615 112.11 32.9077C112.728 32.856 113.285 32.9536 113.782 33.2004C114.281 33.4462 114.681 33.8317 114.983 34.3572C115.186 34.7102 115.31 35.061 115.355 35.4094C115.402 35.7587 115.387 36.0937 115.309 36.4142C115.235 36.7357 115.112 37.0302 114.941 37.2979C114.771 37.5676 114.57 37.7993 114.337 37.9931Z" fill="black"/>
<path d="M110.965 42.9593L117.725 40.2769L117.888 40.6895L111.511 43.22L112.821 46.5208L112.438 46.6727L110.965 42.9593Z" fill="black"/>
<path d="M121.416 52.5138L121.519 52.9456L116.835 54.0616C116.353 54.1762 115.897 54.1668 115.466 54.0334C115.038 53.8995 114.667 53.6616 114.355 53.3199C114.045 52.98 113.829 52.5556 113.708 52.0466C113.587 51.54 113.588 51.0639 113.711 50.6186C113.836 50.1726 114.06 49.7918 114.384 49.4762C114.709 49.1628 115.111 48.9502 115.59 48.8384L120.275 47.7225L120.378 48.1543L115.717 49.2644C115.31 49.3616 114.969 49.5401 114.695 49.8C114.422 50.0623 114.232 50.3789 114.126 50.7498C114.022 51.1201 114.021 51.5195 114.123 51.9479C114.225 52.3762 114.406 52.7322 114.665 53.0159C114.928 53.299 115.239 53.4949 115.601 53.6034C115.963 53.7142 116.348 53.7211 116.756 53.624L121.416 52.5138Z" fill="black"/>
<path d="M120.473 60.8659C120.92 60.7902 121.269 60.5755 121.52 60.2218C121.771 59.8704 121.874 59.4341 121.83 58.9127C121.801 58.5612 121.71 58.2541 121.557 57.9914C121.404 57.7287 121.209 57.5289 120.972 57.392C120.735 57.2552 120.471 57.199 120.181 57.2234C119.994 57.2391 119.829 57.2887 119.684 57.3722C119.541 57.4578 119.416 57.5717 119.31 57.7137C119.205 57.8555 119.117 58.021 119.045 58.21C118.973 58.399 118.913 58.6059 118.866 58.8309L118.699 59.6432C118.639 59.9214 118.565 60.1796 118.475 60.4175C118.386 60.6578 118.273 60.8693 118.137 61.0519C118.003 61.2366 117.839 61.3846 117.647 61.4958C117.454 61.6094 117.227 61.6772 116.965 61.6993C116.583 61.7314 116.233 61.6612 115.914 61.4884C115.596 61.318 115.334 61.0585 115.129 60.7099C114.926 60.3635 114.804 59.9449 114.763 59.4542C114.723 58.9872 114.768 58.5736 114.897 58.2135C115.026 57.8557 115.223 57.5648 115.486 57.3406C115.753 57.1163 116.069 56.9756 116.435 56.9187L116.473 57.3717C116.175 57.4205 115.924 57.5379 115.718 57.7238C115.516 57.9119 115.367 58.1513 115.273 58.442C115.178 58.7327 115.146 59.0585 115.177 59.4194C115.21 59.8086 115.305 60.1463 115.462 60.4325C115.621 60.7184 115.827 60.9351 116.079 61.0825C116.332 61.2299 116.616 61.2903 116.932 61.2637C117.187 61.2423 117.4 61.1638 117.572 61.0281C117.743 60.8925 117.885 60.7012 117.997 60.4542C118.11 60.2095 118.203 59.9094 118.278 59.5539L118.461 58.6867C118.586 58.1061 118.784 57.6534 119.056 57.3288C119.329 57.0065 119.686 56.8267 120.13 56.7894C120.503 56.758 120.841 56.8293 121.146 57.0032C121.453 57.1769 121.703 57.4267 121.897 57.7525C122.091 58.0807 122.206 58.4594 122.242 58.8888C122.278 59.3205 122.226 59.7085 122.087 60.0529C121.949 60.3971 121.744 60.6781 121.47 60.896C121.198 61.1137 120.878 61.2487 120.51 61.3011L120.473 60.8659Z" fill="black"/>
<path d="M122.221 65.7186L114.953 65.4575L114.969 65.0139L122.237 65.275L122.221 65.7186Z" fill="black"/>
<path d="M121.804 70.7481L114.814 72.0656L114.806 72.1147L121.056 75.5121L120.983 75.9752L114.206 72.254L114.285 71.7489L121.877 70.285L121.804 70.7481Z" fill="black"/>
<path d="M113.054 77.2659L120.015 79.3714L118.843 83.2463L118.449 83.1271L119.492 79.677L116.606 78.8042L115.626 82.0469L115.231 81.9276L116.212 78.6849L113.319 77.81L112.251 81.3417L111.857 81.2224L113.054 77.2659Z" fill="black"/>
<path d="M107.573 89.9383L108.598 88.2016L114.86 91.9003L113.755 93.7715C113.408 94.3586 112.987 94.7876 112.492 95.0586C111.996 95.3296 111.45 95.4389 110.854 95.3866C110.259 95.3375 109.638 95.1205 108.991 94.7356C108.33 94.3423 107.832 93.8914 107.497 93.3829C107.164 92.8757 107.001 92.3299 107.008 91.7456C107.017 91.1625 107.205 90.56 107.573 89.9383ZM108.727 88.7933L107.936 90.1325C107.606 90.6911 107.439 91.2275 107.435 91.742C107.433 92.2577 107.583 92.7367 107.885 93.1793C108.187 93.6238 108.629 94.0172 109.213 94.3595C109.788 94.6991 110.336 94.895 110.858 94.9475C111.382 95.0011 111.861 94.9115 112.295 94.6787C112.729 94.4479 113.1 94.0706 113.409 93.5468L114.28 92.073L108.727 88.7933Z" fill="black"/>
<path d="M104.103 95.0294L109.77 99.5878L107.232 102.742L106.911 102.484L109.171 99.6754L106.821 97.7858L104.698 100.426L104.377 100.167L106.5 97.5276L104.146 95.6335L101.833 98.5084L101.512 98.2503L104.103 95.0294Z" fill="black"/>
<path d="M100.455 106.823C100.793 107.126 101.178 107.266 101.611 107.242C102.042 107.22 102.448 107.029 102.829 106.67C103.086 106.429 103.269 106.166 103.38 105.883C103.491 105.6 103.526 105.323 103.485 105.052C103.445 104.781 103.325 104.54 103.125 104.328C102.997 104.192 102.855 104.093 102.699 104.031C102.544 103.973 102.377 103.946 102.199 103.951C102.023 103.957 101.839 103.991 101.646 104.053C101.453 104.114 101.254 104.196 101.048 104.298L100.309 104.673C100.054 104.8 99.8052 104.902 99.5634 104.98C99.3198 105.06 99.0841 105.103 98.8561 105.11C98.628 105.12 98.4106 105.084 98.2036 105.002C97.995 104.922 97.8006 104.787 97.6204 104.595C97.3575 104.316 97.1945 103.998 97.1315 103.641C97.0667 103.286 97.107 102.919 97.2523 102.542C97.3974 102.168 97.6492 101.812 98.0077 101.474C98.3489 101.153 98.7006 100.931 99.0626 100.807C99.423 100.686 99.773 100.659 100.113 100.726C100.454 100.795 100.761 100.955 101.033 101.205L100.702 101.517C100.479 101.315 100.23 101.191 99.9569 101.146C99.6835 101.104 99.4037 101.137 99.1174 101.244C98.8312 101.351 98.5562 101.528 98.2926 101.777C98.0082 102.045 97.8029 102.329 97.6767 102.63C97.5521 102.933 97.5106 103.229 97.5522 103.518C97.5938 103.807 97.7233 104.068 97.9408 104.298C98.1161 104.485 98.3102 104.603 98.5231 104.652C98.736 104.702 98.974 104.694 99.2373 104.629C99.4988 104.564 99.7919 104.451 100.117 104.288L100.91 103.892C101.442 103.629 101.92 103.502 102.343 103.513C102.765 103.526 103.128 103.694 103.433 104.018C103.69 104.29 103.845 104.6 103.898 104.946C103.953 105.295 103.913 105.646 103.778 106C103.642 106.356 103.417 106.682 103.104 106.978C102.788 107.275 102.452 107.476 102.096 107.58C101.741 107.687 101.393 107.701 101.052 107.622C100.713 107.545 100.408 107.378 100.137 107.122L100.455 106.823Z" fill="black"/>
<path d="M97.7438 111.21L93.4263 105.358L93.7835 105.094L98.101 110.947L97.7438 111.21Z" fill="black"/>
<path d="M87.7348 114.671C87.9024 114.859 88.0991 115.022 88.3248 115.159C88.5517 115.298 88.799 115.398 89.0668 115.46C89.3338 115.525 89.6126 115.539 89.9034 115.501C90.1921 115.464 90.4832 115.364 90.7766 115.2C91.225 114.949 91.557 114.609 91.7725 114.18C91.9871 113.753 92.0712 113.268 92.025 112.724C91.9778 112.184 91.7891 111.618 91.4587 111.027C91.1318 110.442 90.75 109.987 90.3131 109.662C89.8763 109.336 89.4169 109.153 88.9348 109.11C88.4518 109.071 87.9778 109.181 87.5129 109.441C87.0975 109.673 86.7834 109.975 86.5705 110.346C86.3555 110.719 86.2581 111.134 86.2781 111.592C86.2982 112.05 86.4495 112.527 86.732 113.022L86.5592 113.034L88.7166 111.828L88.9176 112.187L86.5184 113.528L86.3174 113.169C86.0044 112.609 85.8421 112.066 85.8306 111.541C85.8182 111.019 85.9405 110.544 86.1974 110.115C86.4522 109.688 86.8214 109.339 87.3049 109.069C87.8505 108.764 88.4025 108.633 88.9609 108.676C89.5193 108.72 90.0475 108.922 90.5453 109.284C91.0423 109.649 91.4738 110.159 91.84 110.814C92.1149 111.306 92.3003 111.788 92.3963 112.261C92.4923 112.733 92.5011 113.178 92.4229 113.596C92.3458 114.016 92.1857 114.395 91.9426 114.731C91.7007 115.07 91.3813 115.35 90.9845 115.572C90.625 115.773 90.2681 115.894 89.9138 115.935C89.5607 115.977 89.2238 115.957 88.903 115.873C88.5814 115.792 88.2867 115.666 88.0191 115.492C87.7526 115.321 87.5256 115.121 87.338 114.893L87.7348 114.671Z" fill="black"/>
<path d="M79.7825 120.201L77.2626 113.378L77.669 113.228L84.2601 117.687L84.3001 117.673L82.0595 111.607L82.4759 111.453L84.9958 118.275L84.586 118.426L77.9925 113.961L77.9525 113.975L80.1956 120.048L79.7825 120.201Z" fill="black"/>
</svg>
