<svg width="39" height="43" viewBox="0 0 39 43" fill="none" xmlns="http://www.w3.org/2000/svg">
<path d="M19.3589 42.5599C18.8913 42.5588 18.4353 42.4148 18.0518 42.1471C10.7597 37.1481 1.38091 29.8102 1.28919 29.8102C1.03349 29.609 0.823552 29.3556 0.673312 29.067C0.523071 28.7784 0.435974 28.4611 0.417808 28.1362C0.188497 24.0774 -0.453575 10.9149 0.532463 7.97976C0.853499 6.99373 1.86247 4.01268 18.8774 0.0685298C19.223 -0.0228433 19.5865 -0.0228433 19.9322 0.0685298C36.9012 4.01268 37.9102 6.94786 38.2771 7.97976C39.2402 10.9149 38.5981 24.0315 38.3917 28.0445C38.3736 28.3694 38.2865 28.6866 38.1362 28.9753C37.986 29.2639 37.776 29.5172 37.5204 29.7185C37.5204 29.7185 27.9581 37.1481 20.643 42.1471C20.2661 42.4103 19.8187 42.5541 19.3589 42.5599ZM4.93524 26.7603C7.22835 28.5031 13.6949 33.5021 19.3589 37.4692C25.0229 33.5021 31.5124 28.5031 33.7826 26.7603C34.1672 21.057 34.1672 15.3342 33.7826 9.6308C32.4755 8.36959 25.4815 6.09941 19.3589 4.58596C13.2363 6.09941 6.24231 8.36959 4.82058 9.6308C4.4775 15.3368 4.5158 21.0594 4.93524 26.7603Z" fill="black"/>
<path d="M17.8914 30.2001V27.5171C16.2964 27.4616 14.732 27.0627 13.3052 26.3476L14.1307 23.1373C15.5418 23.8965 17.1147 24.3055 18.7169 24.3297C20.2992 24.3297 21.3769 23.7335 21.3769 22.6328C21.3769 21.5321 20.4826 20.9359 18.4647 20.3397C15.5066 19.3307 13.5116 18.0466 13.5116 15.2948C13.5507 14.062 14.0381 12.8858 14.8824 11.9867C15.7266 11.0875 16.8699 10.5271 18.0978 10.4105V7.77344H20.6431V10.1812C22.0214 10.2143 23.3788 10.5263 24.6331 11.0984L23.8306 14.1941C22.5936 13.5951 21.2379 13.2816 19.8635 13.2769C18.0748 13.2769 17.5704 14.0336 17.5704 14.8133C17.5704 15.5929 18.5335 16.3038 20.8724 17.1064C24.1516 18.253 25.4587 19.7664 25.4587 22.243C25.469 23.5673 24.9786 24.8467 24.0856 25.8247C23.1926 26.8028 21.963 27.4073 20.6431 27.5171V30.3147L17.8914 30.2001Z" fill="black"/>
</svg>
