<svg width="354" height="191" viewBox="0 0 354 191" fill="none" xmlns="http://www.w3.org/2000/svg">
<path d="M330.436 190.358H307.096V188.358H330.436V190.358ZM291.054 190.358H275.013V188.358H291.054V190.358ZM258.971 190.358H242.93V188.358H258.971V190.358ZM226.889 190.358H210.847V188.358H226.889V190.358ZM194.806 190.358H178.764V188.358H194.806V190.358ZM162.723 190.358H146.682V188.358H162.723V190.358ZM130.64 190.358H114.599V188.358H130.64V190.358ZM98.5574 190.358H82.516V188.358H98.5574V190.358ZM66.4746 190.358H50.4332V188.358H66.4746V190.358ZM34.3918 190.358H30.8226C26.3432 190.376 21.9168 189.392 17.8692 187.477L18.7113 185.677C22.4795 187.43 26.5847 188.345 30.7424 188.358H33.8705L34.3918 190.358ZM339.218 186.037L338.176 184.317C342.597 181.585 346.198 177.715 348.603 173.115L350.367 174.035C347.813 178.972 343.959 183.122 339.218 186.037ZM5.39698 176.835C2.30729 172.206 0.533304 166.828 0.263736 161.272H2.26891C2.49393 166.434 4.1456 171.432 7.04123 175.715L5.39698 176.835ZM353.776 158.032H351.931V142.029H353.936L353.776 158.032ZM2.22881 145.229H0.223633V129.226H2.22881V145.229ZM353.776 125.786H351.931V109.783H353.936L353.776 125.786ZM2.22881 113.143H0.223633V97.1403H2.22881V113.143ZM353.776 93.7396H351.931V77.7366H353.936L353.776 93.7396ZM2.22881 81.0972H0.223633V65.0942H2.22881V81.0972ZM353.776 61.6936H351.931V45.6905H353.936L353.776 61.6936ZM2.22881 49.0512H0.223633V33.0481H2.22881V49.0512ZM351.931 29.6475C351.641 24.4738 349.966 19.4724 347.079 15.1647L348.522 14.0045C351.652 18.6051 353.455 23.9746 353.736 29.5275L351.931 29.6475ZM5.47719 18.0053L3.67253 17.0851C6.26487 12.1493 10.1442 8.00282 14.9015 5.08283L15.9442 6.80316C11.4995 9.51879 7.88081 13.3916 5.47719 18.0053ZM335.168 5.28287C331.403 3.52493 327.294 2.62305 323.137 2.64237H319.848V0.641992H323.097C327.527 0.636372 331.906 1.59196 335.93 3.44252L335.168 5.28287ZM303.807 2.64237H287.766V0.641992H303.807V2.64237ZM271.724 2.64237H255.683V0.641992H271.724V2.64237ZM239.641 2.64237H223.6V0.641992H239.641V2.64237ZM207.559 2.64237H191.517V0.641992H207.559V2.64237ZM175.476 2.64237H159.435V0.641992H175.476V2.64237ZM143.393 2.64237H127.352V0.641992H143.393V2.64237ZM111.31 2.64237H95.2689V0.641992H111.31V2.64237ZM79.2275 2.64237H63.1861V0.641992H79.2275V2.64237ZM47.1447 2.64237H31.1033V0.641992H47.1447V2.64237Z" fill="white"/>
<path d="M251.873 177.676H249.868V161.673H251.873V177.676ZM251.873 145.67H249.868V129.666H251.873V145.67ZM251.873 113.663H249.868V97.6604H251.873V113.663ZM251.873 81.6574H249.868V65.6544H251.873V81.6574ZM251.873 49.6513H249.868V33.6483H251.873V49.6513ZM251.873 17.6452H249.868V1.64221H251.873V17.6452Z" fill="white"/>
<path d="M40.207 58.693H31.5045V68.1748H26.251V44.8904H41.8111V49.2512H31.5045V54.3322H40.207V58.693Z" fill="white"/>
<path d="M59.8176 68.1748H45.0996V44.8904H50.3933V63.814H59.8176V68.1748Z" fill="white"/>
<path d="M67.4773 54.7723H67.7179L73.3725 44.8904H79.2276L70.3647 59.2931V68.1748H64.9508V59.2931L56.0879 44.8904H61.8227L67.4773 54.7723Z" fill="white"/>
<path d="M86.8073 68.1748H81.5137V44.8904H86.8073V68.1748Z" fill="white"/>
<path d="M109.025 68.1748H103.811L95.5498 54.0121H95.2691V68.3348H90.0957V44.8904H95.2691L103.53 59.2131V44.8904H108.824L109.025 68.1748Z" fill="white"/>
<path d="M131.603 59.5731C131.595 60.7991 131.335 62.0105 130.839 63.1322C130.343 64.254 129.622 65.2623 128.72 66.0948C127.818 66.9273 126.754 67.5663 125.594 67.9722C124.435 68.3782 123.204 68.5424 121.978 68.4548C116.083 68.4548 111.671 64.214 111.671 56.4526C111.671 48.6911 116.043 44.4503 121.858 44.4503C124.045 44.4411 126.171 45.1661 127.895 46.5085C129.619 47.851 130.84 49.733 131.362 51.8517L126.028 52.5718C125.804 51.6063 125.249 50.7495 124.457 50.1502C123.666 49.5509 122.69 49.247 121.697 49.2912C118.93 49.2912 116.845 51.3716 116.845 56.5726C116.845 61.7736 118.97 63.7339 121.818 63.7339C122.383 63.8022 122.957 63.7494 123.5 63.5791C124.044 63.4088 124.545 63.125 124.97 62.7464C125.395 62.3679 125.734 61.9034 125.965 61.3838C126.196 60.8642 126.313 60.3015 126.309 59.7332H121.978V55.7324H131.603V59.5731Z" fill="white"/>
<path d="M152.136 48.9712C150.09 48.9712 148.647 49.8513 148.647 51.1716C148.647 52.4918 150.491 53.212 153.018 54.1321L153.66 54.4122C158.031 55.9325 160.597 57.8528 160.597 61.6136C160.597 66.0144 157.068 68.4549 152.015 68.4549C146.962 68.4549 142.792 66.0944 142.792 60.4533H147.925C147.925 62.7338 149.529 63.934 151.935 63.934C154.341 63.934 155.424 62.7338 155.424 61.4935C155.424 60.2533 154.181 59.0931 150.612 57.9729H150.13C146.12 56.8126 143.393 54.5722 143.393 51.1316C143.393 47.6909 147.042 44.5703 152.055 44.5703C153.098 44.4354 154.157 44.5207 155.165 44.8206C156.172 45.1205 157.105 45.6284 157.903 46.3112C158.701 46.994 159.346 47.8366 159.796 48.7842C160.247 49.7318 160.492 50.7633 160.517 51.8117H155.424C155.424 50.0114 154.422 48.9712 152.136 48.9712Z" fill="white"/>
<path d="M173.751 68.4549C167.896 68.4549 163.445 64.2141 163.445 56.4526C163.445 48.6911 167.896 44.4503 173.751 44.4503C179.607 44.4503 183.938 48.7711 183.938 56.4526C183.938 64.1341 179.486 68.4549 173.751 68.4549ZM173.751 49.2912C170.864 49.2912 168.779 51.3716 168.779 56.5726C168.779 61.7736 170.864 63.734 173.751 63.734C176.639 63.734 178.604 61.8136 178.604 56.5726C178.604 51.3316 176.599 49.2912 173.751 49.2912Z" fill="white"/>
<path d="M201.303 68.1748H186.585V44.8904H191.879V63.814H201.303V68.1748Z" fill="white"/>
<path d="M213.855 68.4549C208 68.4549 203.548 64.2141 203.548 56.4526C203.548 48.6911 208 44.4503 213.855 44.4503C219.71 44.4503 224.041 48.7711 224.041 56.4526C224.041 64.1341 219.59 68.4549 213.855 68.4549ZM213.855 49.2912C210.967 49.2912 208.882 51.3716 208.882 56.5726C208.882 61.7736 210.967 63.734 213.855 63.734C216.742 63.734 218.707 61.8136 218.707 56.5726C218.707 51.3316 216.702 49.2912 213.855 49.2912Z" fill="white"/>
<path d="M41.8111 106.582H26.251V83.2977H41.8111V87.6586H31.5045V92.7395H40.207V97.1003H31.5045V102.221H41.8111V106.582Z" fill="white"/>
<path d="M55.6872 99.9809H55.9278L61.6626 83.2977H67.1969L58.5746 106.582H52.9601L44.3379 83.2977H49.9524L55.6872 99.9809Z" fill="white"/>
<path d="M85.1227 106.582H69.5225V83.2977H85.1227V87.6586H74.8161V92.7395H83.5186V97.1003H74.8161V102.221H85.1227V106.582Z" fill="white"/>
<path d="M107.3 106.582H102.167L93.8657 92.2594V106.582H88.4116V83.2977H93.6251L101.886 97.6204V83.2977H107.3V106.582Z" fill="white"/>
<path d="M128.795 87.6586H121.978V106.582H116.724V87.6586H109.907V83.2977H128.795V87.6586Z" fill="white"/>
<path d="M156.146 106.582H140.105V102.581L147.685 95.0599C149.242 93.7566 150.246 91.912 150.492 89.8989C150.519 89.5285 150.47 89.1565 150.348 88.8057C150.226 88.4549 150.033 88.1327 149.781 87.8591C149.53 87.5855 149.224 87.3662 148.884 87.2147C148.545 87.0633 148.177 86.9828 147.805 86.9784C146 86.9784 144.917 88.5387 144.917 90.6591H139.864C139.813 89.5946 139.985 88.5313 140.37 87.5372C140.755 86.5431 141.344 85.6403 142.099 84.8867C142.854 84.1332 143.759 83.5456 144.756 83.1617C145.752 82.7778 146.818 82.6061 147.885 82.6575C148.882 82.5754 149.886 82.7081 150.827 83.0467C151.768 83.3854 152.625 83.922 153.34 84.6202C154.055 85.3184 154.612 86.1618 154.971 87.0933C155.331 88.0248 155.485 89.0226 155.425 90.0189C154.965 93.6184 153.107 96.894 150.251 99.1407L147.404 102.021H156.187L156.146 106.582Z" fill="white"/>
<path d="M175.837 96.7403C175.837 103.622 172.308 106.862 167.535 106.862C162.763 106.862 159.435 103.622 159.435 96.7403V92.7395C159.435 86.2183 162.964 82.8176 167.696 82.8176C172.428 82.8176 175.997 86.2183 175.997 92.7395L175.837 96.7403ZM170.704 92.2194C170.704 88.6987 169.38 87.2585 167.535 87.2585C165.691 87.2585 164.407 88.6987 164.407 92.2194V97.4204C164.407 101.421 165.731 102.581 167.535 102.581C169.34 102.581 170.704 101.301 170.704 97.4204V92.2194Z" fill="white"/>
<path d="M194.966 106.582H178.925V102.581L186.464 95.0599C188.044 93.8155 189.079 92.0086 189.352 90.0189C189.379 89.6486 189.33 89.2765 189.208 88.9257C189.086 88.5749 188.893 88.2528 188.641 87.9792C188.39 87.7055 188.084 87.4862 187.744 87.3348C187.404 87.1833 187.037 87.1028 186.665 87.0984C184.82 87.0984 183.737 88.6587 183.737 90.7791H178.684C178.633 89.7147 178.805 88.6513 179.19 87.6572C179.574 86.6631 180.163 85.7603 180.919 85.0068C181.674 84.2533 182.579 83.6657 183.576 83.2818C184.572 82.8979 185.638 82.7261 186.705 82.7776C187.698 82.6851 188.699 82.806 189.641 83.1322C190.583 83.4584 191.445 83.9822 192.167 84.6684C192.889 85.3546 193.455 86.1873 193.827 87.1102C194.199 88.0332 194.369 89.0251 194.325 90.0189C194.105 91.804 193.536 93.5284 192.648 95.0935C191.76 96.6587 190.572 98.034 189.151 99.1407L186.184 102.181H194.966V106.582Z" fill="white"/>
<path d="M203.548 92.7395H206.075C206.49 92.7709 206.907 92.7111 207.297 92.5642C207.686 92.4173 208.039 92.1869 208.329 91.8894C208.62 91.5918 208.842 91.2343 208.979 90.842C209.116 90.4497 209.165 90.0322 209.123 89.6189C209.131 89.2558 209.061 88.8952 208.917 88.5616C208.774 88.228 208.559 87.9294 208.289 87.6863C208.018 87.4431 207.698 87.2611 207.351 87.1527C207.003 87.0444 206.637 87.0122 206.275 87.0584C204.872 87.0584 203.548 87.8586 203.548 89.1788H198.495C198.564 88.2636 198.819 87.3718 199.244 86.558C199.67 85.7442 200.257 85.0252 200.97 84.4451C201.683 83.8649 202.506 83.4355 203.391 83.1833C204.276 82.931 205.202 82.861 206.115 82.9776C210.887 82.9776 214.136 85.2581 214.136 89.4989C214.095 90.6448 213.725 91.7549 213.071 92.6979C212.417 93.6409 211.506 94.3773 210.446 94.8199C211.625 95.1129 212.667 95.8017 213.398 96.7706C214.128 97.7395 214.502 98.9295 214.457 100.141C214.457 104.422 210.847 106.862 206.075 106.862C205.107 106.997 204.121 106.929 203.18 106.663C202.24 106.398 201.365 105.94 200.611 105.319C199.857 104.699 199.24 103.929 198.8 103.058C198.36 102.187 198.106 101.235 198.054 100.261H203.107C203.178 100.998 203.539 101.676 204.11 102.148C204.681 102.621 205.416 102.848 206.155 102.781C206.549 102.838 206.951 102.811 207.334 102.701C207.716 102.591 208.071 102.401 208.375 102.144C208.678 101.886 208.923 101.567 209.094 101.208C209.264 100.849 209.356 100.458 209.363 100.061C209.363 97.7405 208.08 97.1003 205.955 97.1003H203.548V92.7395Z" fill="white"/>
<path d="M34.2314 133.667H36.4772V143.949C36.5492 144.553 36.4823 145.166 36.2814 145.74C36.0805 146.314 35.751 146.835 35.318 147.263C34.8849 147.691 34.3597 148.015 33.7823 148.211C33.2049 148.406 32.5904 148.467 31.9857 148.39C31.4263 148.446 30.8614 148.384 30.3275 148.208C29.7937 148.033 29.3029 147.747 28.8869 147.37C28.4709 146.992 28.1391 146.532 27.913 146.019C27.6869 145.505 27.5715 144.95 27.5743 144.389H29.8201C29.8136 144.68 29.8682 144.969 29.9804 145.237C30.0926 145.505 30.2599 145.747 30.4715 145.946C30.6831 146.146 30.9342 146.3 31.2089 146.397C31.4835 146.494 31.7754 146.532 32.0659 146.51C33.1487 146.51 34.2314 145.87 34.2314 143.989V133.667Z" fill="white"/>
<path d="M46.0219 137.308H48.1875V148.19H46.062V146.75C45.7043 147.251 45.2278 147.656 44.6749 147.928C44.122 148.2 43.51 148.331 42.8938 148.31C42.3928 148.296 41.9001 148.179 41.4463 147.967C40.9926 147.754 40.5875 147.451 40.2564 147.076C39.9253 146.7 39.6753 146.261 39.5219 145.785C39.3684 145.309 39.3149 144.807 39.3647 144.309V137.308H41.5303V144.149C41.5013 144.44 41.5353 144.734 41.6302 145.011C41.725 145.288 41.8785 145.541 42.0801 145.754C42.2817 145.966 42.5267 146.133 42.7986 146.243C43.0704 146.352 43.3628 146.402 43.6558 146.39C44.004 146.386 44.3475 146.31 44.6643 146.166C44.981 146.021 45.2638 145.812 45.4944 145.552C45.725 145.292 45.8983 144.986 46.003 144.655C46.1077 144.324 46.1414 143.974 46.1021 143.629L46.0219 137.308Z" fill="white"/>
<path d="M53.1604 148.19H51.1553V133.667H53.361L53.1604 148.19Z" fill="white"/>
<path d="M59.1759 148.15L55.1655 137.308H57.4514L60.1785 145.309L62.9055 137.308H65.2315L60.6597 150.03C60.4482 150.766 59.9997 151.411 59.3835 151.867C58.7673 152.322 58.0178 152.563 57.2509 152.551C56.7851 152.559 56.3221 152.478 55.8874 152.311L56.4087 150.55C57.6519 150.87 58.2535 150.55 58.8149 149.11L59.1759 148.15Z" fill="white"/>
<path d="M82.3557 148.19H72.4902V146.55L77.5032 141.469C79.1073 139.828 79.8292 138.828 79.8292 137.708C79.8348 137.383 79.774 137.059 79.6505 136.758C79.5271 136.457 79.3434 136.184 79.1109 135.956C78.8783 135.727 78.6016 135.549 78.2977 135.43C77.9937 135.312 77.6688 135.257 77.3428 135.268C75.6584 135.268 75.0168 136.708 75.0168 138.228H72.8111C72.7654 137.605 72.8522 136.979 73.0656 136.392C73.2791 135.804 73.6144 135.268 74.0497 134.819C74.485 134.369 75.0105 134.017 75.5918 133.784C76.173 133.551 76.797 133.443 77.423 133.467C77.9916 133.393 78.5697 133.441 79.1182 133.608C79.6666 133.776 80.1727 134.059 80.6022 134.438C81.0317 134.817 81.3747 135.284 81.608 135.807C81.8413 136.329 81.9595 136.896 81.9547 137.468C81.677 139.519 80.6133 141.383 78.987 142.669L75.7386 145.99H82.3557V148.19Z" fill="white"/>
<path d="M89.2936 146.51C90.7774 146.51 92.0207 145.469 92.141 141.669C91.7534 142.086 91.281 142.416 90.7555 142.637C90.2299 142.858 89.6632 142.964 89.0931 142.949C88.4875 142.945 87.8892 142.817 87.3347 142.574C86.7802 142.331 86.2812 141.978 85.8682 141.536C85.4553 141.094 85.1371 140.573 84.933 140.004C84.729 139.435 84.6435 138.831 84.6817 138.228C84.6479 137.601 84.7454 136.973 84.9681 136.386C85.1909 135.798 85.534 135.263 85.9754 134.815C86.4169 134.367 86.9471 134.016 87.5322 133.784C88.1174 133.552 88.7446 133.444 89.3738 133.467C92.5019 133.467 94.2665 135.908 94.2665 140.348V140.869C94.2665 145.469 92.8628 148.39 89.3337 148.39C88.2153 148.434 87.1238 148.04 86.2922 147.293C85.4605 146.546 84.9546 145.504 84.8822 144.389H87.0077C87.2483 145.469 87.8098 146.51 89.2936 146.51ZM89.2936 141.069C89.6508 141.091 90.0087 141.039 90.3444 140.915C90.6801 140.792 90.9862 140.599 91.243 140.351C91.4998 140.102 91.7017 139.802 91.8356 139.471C91.9695 139.14 92.0326 138.785 92.0207 138.428C92.0719 138.045 92.0408 137.656 91.9295 137.286C91.8181 136.916 91.6291 136.574 91.3749 136.282C91.1207 135.991 90.8072 135.757 90.4552 135.596C90.1033 135.434 89.721 135.35 89.3337 135.348C87.8098 135.348 86.8072 136.428 86.8072 138.228C86.8072 140.028 87.5692 141.069 89.3337 141.069H89.2936Z" fill="white"/>
<path d="M98.9183 147.71C98.83 149.087 98.3111 150.403 97.4345 151.471L95.9507 151.03C96.4985 150.033 96.8138 148.926 96.8731 147.79V146.03H98.9183V147.71Z" fill="white"/>
<path d="M116.885 148.19H107.06V146.55L112.032 141.469C113.677 139.828 114.358 138.828 114.358 137.708C114.364 137.383 114.303 137.059 114.18 136.758C114.056 136.457 113.873 136.184 113.64 135.956C113.408 135.727 113.131 135.549 112.827 135.43C112.523 135.312 112.198 135.257 111.872 135.268C110.188 135.268 109.546 136.708 109.546 138.228H107.3C107.249 137.607 107.33 136.982 107.539 136.394C107.747 135.807 108.079 135.27 108.511 134.82C108.943 134.37 109.466 134.017 110.046 133.783C110.625 133.55 111.248 133.442 111.872 133.467C112.438 133.418 113.008 133.484 113.548 133.66C114.088 133.837 114.587 134.12 115.014 134.494C115.441 134.868 115.788 135.324 116.034 135.835C116.279 136.346 116.419 136.902 116.444 137.468C116.143 139.511 115.084 141.368 113.476 142.669L110.228 145.99H116.805L116.885 148.19Z" fill="white"/>
<path d="M128.996 141.669C128.996 145.95 127.191 148.39 124.103 148.39C121.015 148.39 119.09 145.95 119.09 141.669V139.948C119.09 135.948 120.975 133.467 124.063 133.467C127.151 133.467 128.996 135.788 128.996 139.948V141.669ZM126.79 139.588C126.79 137.028 125.828 135.588 124.063 135.588C122.299 135.588 121.336 137.228 121.336 139.588V142.029C121.336 144.629 122.299 146.47 124.103 146.47C125.908 146.47 126.79 144.629 126.79 142.029V139.588Z" fill="white"/>
<path d="M140.907 148.19H131.082V146.55L136.054 141.469C137.699 139.828 138.38 138.828 138.38 137.708C138.392 137.385 138.336 137.062 138.217 136.761C138.098 136.46 137.918 136.186 137.689 135.958C137.459 135.729 137.185 135.549 136.883 135.431C136.581 135.312 136.258 135.256 135.934 135.268C134.21 135.268 133.568 136.708 133.568 138.228H131.362C131.311 137.607 131.392 136.982 131.601 136.394C131.809 135.807 132.141 135.27 132.573 134.82C133.005 134.37 133.528 134.017 134.108 133.783C134.687 133.55 135.31 133.442 135.934 133.467C136.5 133.418 137.07 133.484 137.61 133.66C138.15 133.837 138.649 134.12 139.076 134.494C139.503 134.868 139.85 135.324 140.096 135.835C140.341 136.346 140.481 136.902 140.506 137.468C140.228 139.519 139.165 141.384 137.538 142.669L134.29 145.99H140.867L140.907 148.19Z" fill="white"/>
<path d="M146.762 139.868H147.804C148.131 139.903 148.461 139.867 148.773 139.763C149.084 139.659 149.37 139.489 149.609 139.265C149.849 139.041 150.038 138.768 150.162 138.465C150.287 138.162 150.344 137.835 150.331 137.508C150.343 137.198 150.29 136.89 150.174 136.602C150.058 136.315 149.883 136.055 149.659 135.839C149.436 135.624 149.17 135.458 148.878 135.353C148.586 135.247 148.275 135.205 147.965 135.227C147.675 135.2 147.382 135.233 147.105 135.325C146.828 135.416 146.574 135.565 146.359 135.761C146.143 135.957 145.972 136.196 145.854 136.463C145.737 136.729 145.678 137.017 145.679 137.308H143.393C143.39 136.743 143.506 136.184 143.735 135.668C143.963 135.151 144.299 134.689 144.719 134.311C145.14 133.933 145.635 133.648 146.174 133.475C146.713 133.302 147.282 133.245 147.845 133.307C148.416 133.226 148.999 133.27 149.552 133.435C150.105 133.599 150.617 133.881 151.051 134.261C151.485 134.641 151.832 135.11 152.067 135.636C152.303 136.161 152.422 136.732 152.416 137.308C152.365 137.998 152.134 138.664 151.748 139.239C151.361 139.814 150.831 140.279 150.211 140.589C150.951 140.802 151.598 141.258 152.049 141.881C152.499 142.505 152.727 143.261 152.697 144.029C152.647 144.615 152.48 145.186 152.205 145.707C151.931 146.227 151.554 146.688 151.098 147.061C150.642 147.434 150.115 147.712 149.55 147.878C148.984 148.045 148.39 148.096 147.804 148.03C147.233 148.111 146.65 148.067 146.097 147.903C145.543 147.738 145.032 147.456 144.598 147.076C144.164 146.696 143.817 146.227 143.582 145.702C143.346 145.176 143.227 144.605 143.233 144.029H145.478C145.476 144.324 145.537 144.615 145.657 144.885C145.776 145.154 145.952 145.395 146.172 145.592C146.392 145.789 146.651 145.937 146.932 146.026C147.214 146.115 147.511 146.144 147.804 146.11C148.136 146.15 148.472 146.118 148.791 146.018C149.109 145.917 149.402 145.748 149.649 145.524C149.897 145.3 150.093 145.026 150.224 144.72C150.356 144.413 150.419 144.082 150.411 143.749C150.411 142.149 149.328 141.389 147.684 141.389H146.641L146.762 139.868Z" fill="white"/>
<path d="M333.564 134.827V136.908H322.094C322.47 137.305 322.754 137.78 322.927 138.298C323.1 138.816 323.158 139.366 323.097 139.908H321.252C321.244 139.206 321.026 138.523 320.626 137.945C320.226 137.368 319.662 136.923 319.006 136.668V134.827H333.564Z" fill="white"/>
<path d="M333.564 121.145V130.987H331.88L326.827 126.026C325.183 124.386 324.18 123.705 323.057 123.705C322.733 123.694 322.41 123.75 322.108 123.868C321.806 123.987 321.532 124.166 321.302 124.395C321.073 124.624 320.893 124.898 320.774 125.199C320.655 125.5 320.6 125.822 320.611 126.146C320.611 127.826 322.055 128.506 323.578 128.506V130.667C322.95 130.713 322.319 130.625 321.727 130.41C321.136 130.195 320.596 129.856 320.145 129.418C319.694 128.979 319.342 128.45 319.111 127.865C318.88 127.28 318.776 126.654 318.806 126.026C318.725 125.455 318.769 124.874 318.934 124.322C319.099 123.77 319.381 123.26 319.762 122.827C320.143 122.394 320.613 122.048 321.14 121.813C321.667 121.578 322.239 121.459 322.816 121.465C324.873 121.742 326.741 122.803 328.03 124.426L331.359 127.666V121.145H333.564Z" fill="white"/>
<path d="M325.222 115.344V114.304C325.257 113.978 325.221 113.648 325.117 113.337C325.013 113.027 324.843 112.742 324.618 112.503C324.393 112.264 324.12 112.076 323.816 111.951C323.512 111.827 323.185 111.77 322.856 111.783C322.546 111.771 322.237 111.824 321.948 111.94C321.66 112.055 321.4 112.23 321.184 112.453C320.968 112.676 320.802 112.942 320.696 113.233C320.59 113.524 320.548 113.835 320.57 114.144C320.542 114.433 320.576 114.725 320.668 115.001C320.76 115.277 320.909 115.531 321.106 115.746C321.302 115.961 321.542 116.132 321.809 116.249C322.076 116.366 322.364 116.425 322.656 116.424V118.584C322.09 118.588 321.53 118.472 321.012 118.244C320.494 118.016 320.031 117.681 319.652 117.262C319.273 116.842 318.988 116.347 318.814 115.81C318.641 115.273 318.583 114.705 318.645 114.144C318.565 113.573 318.608 112.992 318.773 112.44C318.938 111.888 319.221 111.378 319.602 110.945C319.982 110.512 320.452 110.166 320.979 109.931C321.507 109.696 322.078 109.577 322.656 109.583C323.348 109.634 324.015 109.864 324.591 110.25C325.168 110.635 325.634 111.164 325.944 111.783C326.159 111.045 326.615 110.399 327.24 109.95C327.865 109.5 328.623 109.272 329.393 109.303C329.981 109.352 330.553 109.519 331.075 109.793C331.597 110.067 332.058 110.443 332.432 110.898C332.806 111.353 333.085 111.878 333.251 112.443C333.418 113.007 333.47 113.599 333.404 114.184C333.484 114.754 333.441 115.335 333.276 115.887C333.111 116.439 332.828 116.949 332.448 117.382C332.067 117.815 331.597 118.161 331.07 118.396C330.542 118.631 329.971 118.75 329.393 118.744V116.504C329.735 116.579 330.091 116.568 330.428 116.47C330.764 116.372 331.07 116.191 331.318 115.944C331.566 115.696 331.747 115.391 331.845 115.055C331.944 114.72 331.955 114.365 331.88 114.024C331.919 113.691 331.888 113.354 331.787 113.034C331.686 112.714 331.518 112.42 331.294 112.17C331.07 111.92 330.796 111.721 330.489 111.585C330.182 111.45 329.849 111.381 329.514 111.383C327.869 111.383 327.147 112.503 327.147 114.144V115.184L325.222 115.344Z" fill="white"/>
<path d="M325.222 103.381V102.341C325.257 102.014 325.221 101.682 325.117 101.37C325.013 101.057 324.843 100.77 324.619 100.528C324.395 100.286 324.122 100.094 323.818 99.9649C323.514 99.8361 323.187 99.7733 322.856 99.7808C322.542 99.7681 322.229 99.8224 321.938 99.9402C321.647 100.058 321.384 100.237 321.168 100.464C320.951 100.691 320.786 100.962 320.683 101.258C320.58 101.554 320.542 101.869 320.57 102.181C320.542 102.471 320.576 102.763 320.668 103.039C320.76 103.315 320.909 103.569 321.106 103.783C321.302 103.998 321.542 104.17 321.809 104.287C322.076 104.403 322.364 104.463 322.656 104.462V106.622C322.09 106.626 321.53 106.509 321.012 106.281C320.494 106.053 320.031 105.719 319.652 105.299C319.273 104.88 318.988 104.385 318.814 103.848C318.641 103.31 318.583 102.742 318.645 102.181C318.565 101.611 318.608 101.03 318.773 100.478C318.938 99.9257 319.221 99.4157 319.602 98.9827C319.982 98.5496 320.452 98.2037 320.979 97.9686C321.507 97.7335 322.078 97.6147 322.656 97.6204C323.355 97.6468 324.032 97.8666 324.613 98.2552C325.194 98.6438 325.655 99.1858 325.944 99.8208C326.159 99.0824 326.615 98.4369 327.24 97.9873C327.865 97.5377 328.623 97.31 329.393 97.3403C329.981 97.3901 330.553 97.5569 331.075 97.8309C331.597 98.1049 332.058 98.4805 332.432 98.9356C332.806 99.3907 333.085 99.9159 333.251 100.48C333.418 101.045 333.47 101.637 333.404 102.221C333.484 102.792 333.441 103.373 333.276 103.925C333.111 104.477 332.828 104.987 332.448 105.42C332.067 105.853 331.597 106.199 331.07 106.434C330.542 106.669 329.971 106.788 329.393 106.782V104.542C329.689 104.544 329.981 104.483 330.251 104.364C330.521 104.245 330.763 104.069 330.96 103.85C331.157 103.631 331.305 103.372 331.395 103.091C331.484 102.81 331.513 102.514 331.479 102.221C331.518 101.889 331.487 101.551 331.386 101.232C331.285 100.912 331.117 100.618 330.893 100.368C330.669 100.118 330.395 99.9188 330.088 99.7831C329.781 99.6474 329.448 99.5784 329.112 99.5808C327.468 99.5808 326.746 100.701 326.746 102.341V103.381H325.222Z" fill="white"/>
<path d="M330.797 84.698V86.7384H333.564V88.7388H330.797V95.34H329.313L319.006 89.0588V86.7384H328.832V84.698H330.797ZM328.832 88.6988H321.773L322.495 89.0188L328.832 92.7795V88.6988Z" fill="white"/>
<path d="M326.425 82.5376L319.006 81.6974V74.0159H321.012V79.9371L325.022 80.4572C324.487 79.7697 324.191 78.9269 324.18 78.0567C324.161 77.4408 324.273 76.8279 324.507 76.2577C324.741 75.6874 325.092 75.1726 325.538 74.7464C325.984 74.3202 326.515 73.9923 327.096 73.7837C327.677 73.5752 328.296 73.4908 328.912 73.5358C329.529 73.4979 330.147 73.5852 330.729 73.7923C331.311 73.9994 331.845 74.3222 332.299 74.741C332.752 75.1598 333.116 75.666 333.368 76.2291C333.62 76.7921 333.755 77.4002 333.764 78.0167C333.845 78.5871 333.802 79.1681 333.637 79.7202C333.472 80.2722 333.189 80.7822 332.808 81.2153C332.428 81.6483 331.958 81.9942 331.43 82.2293C330.903 82.4645 330.331 82.5832 329.754 82.5776V80.4172C330.342 80.3482 330.885 80.0652 331.277 79.6223C331.669 79.1793 331.884 78.6077 331.88 78.0167C331.875 77.6401 331.793 77.2684 331.64 76.9245C331.486 76.5805 331.263 76.2716 330.985 76.0168C330.707 75.7619 330.38 75.5666 330.023 75.4426C329.667 75.3187 329.288 75.2689 328.912 75.2962C328.531 75.2552 328.146 75.2971 327.783 75.419C327.42 75.5409 327.088 75.74 326.81 76.0025C326.531 76.2649 326.313 76.5845 326.171 76.9392C326.028 77.2938 325.965 77.6751 325.984 78.0567C325.948 78.9539 326.265 79.8297 326.867 80.4972L326.425 82.5376Z" fill="white"/>
<path d="M330.797 60.6534V62.6938H333.564V64.6542H330.797V71.2555H329.313L319.006 64.9743V62.6938H328.832V60.6534H330.797ZM328.832 64.6542H321.773L322.495 64.9743L328.832 68.735V64.6542Z" fill="white"/>
<path d="M266.271 143.309V152.671H301.161V143.309H266.271Z" fill="white"/>
<path d="M266.271 135.868V137.788H301.161V135.868H266.271Z" fill="white"/>
<path d="M266.271 128.186V132.027H301.161V128.186H266.271Z" fill="white"/>
<path d="M266.271 121.945V123.625H301.161V121.945H266.271Z" fill="white"/>
<path d="M266.271 113.783V118.344H301.161V113.783H266.271Z" fill="white"/>
<path d="M266.271 108.022V109.943H301.161V108.022H266.271Z" fill="white"/>
<path d="M266.271 101.781V103.462H301.161V101.781H266.271Z" fill="white"/>
<path d="M266.271 93.6196V98.4205H301.161V93.6196H266.271Z" fill="white"/>
<path d="M266.271 86.1783V88.0986H301.161V86.1783H266.271Z" fill="white"/>
<path d="M266.271 80.6572V82.8176H301.161V80.6572H266.271Z" fill="white"/>
<path d="M266.271 70.5753V77.0565H301.161V70.5753H266.271Z" fill="white"/>
<path d="M266.271 64.5741V66.0144H301.161V64.5741H266.271Z" fill="white"/>
<path d="M266.271 59.5332V60.7334H301.161V59.5332H266.271Z" fill="white"/>
<path d="M266.271 52.812V55.6925H301.161V52.812H266.271Z" fill="white"/>
<path d="M266.271 46.3306V48.7311H301.161V46.3306H266.271Z" fill="white"/>
</svg>

