<svg width="70" height="40" viewBox="0 0 70 40" fill="none" xmlns="http://www.w3.org/2000/svg">
<path d="M42.3242 11.8451C43.0739 12.4984 43.723 13.2588 44.2505 14.1017C43.2847 15.7762 41.895 17.1669 40.2211 18.1339C38.5472 19.1008 36.6482 19.6098 34.7151 19.6098C32.782 19.6098 30.883 19.1008 29.2091 18.1339C27.5352 17.1669 26.1455 15.7762 25.1797 14.1017C25.7255 13.2643 26.3828 12.5051 27.1336 11.8451C27.8398 11.1849 28.6367 10.6289 29.5002 10.194C29.8621 11.2951 30.5625 12.2539 31.5014 12.9336C32.4403 13.6133 33.5698 13.9792 34.7289 13.9792C35.888 13.9792 37.0175 13.6133 37.9564 12.9336C38.8953 12.2539 39.5956 11.2951 39.9575 10.194C40.817 10.6356 41.613 11.191 42.3242 11.8451Z" fill="white"/>
<path d="M51.5992 20.2937C51.5992 20.8441 51.5992 21.422 51.5992 21.9724H48.8473C48.8892 21.4136 48.8892 20.8525 48.8473 20.2937C48.9315 18.3855 48.6284 16.48 47.9563 14.6921C47.2841 12.9043 46.2568 11.2711 44.9363 9.89099C43.6158 8.51092 42.0295 7.41259 40.273 6.66223C38.5165 5.91187 36.6262 5.52502 34.7162 5.52502C32.8061 5.52502 30.9159 5.91187 29.1594 6.66223C27.4029 7.41259 25.8166 8.51092 24.4961 9.89099C23.1756 11.2711 22.1483 12.9043 21.4761 14.6921C20.8039 16.48 20.5008 18.3855 20.585 20.2937C20.5431 20.8525 20.5431 21.4136 20.585 21.9724H17.8331C17.8331 21.422 17.8331 20.8441 17.8331 20.2937C17.7413 18.0192 18.1099 15.7496 18.917 13.6212C19.724 11.4928 20.9529 9.54933 22.5296 7.90758C24.1064 6.26582 25.9987 4.9596 28.0929 4.06732C30.187 3.17503 32.4398 2.71509 34.7162 2.71509C36.9925 2.71509 39.2453 3.17503 41.3395 4.06732C43.4336 4.9596 45.3259 6.26582 46.9027 7.90758C48.4795 9.54933 49.7083 11.4928 50.5154 13.6212C51.3224 15.7496 51.6911 18.0192 51.5992 20.2937Z" fill="white"/>
<path d="M34.7294 0.644897C29.5182 0.644897 24.5205 2.71503 20.8356 6.39989C17.1508 10.0847 15.0806 15.0825 15.0806 20.2937C15.0525 20.8529 15.0525 21.4131 15.0806 21.9723H20.5845C20.5426 21.4136 20.5426 20.8524 20.5845 20.2937C20.5003 18.3855 20.8034 16.48 21.4755 14.6921C22.1477 12.9042 23.175 11.271 24.4955 9.89096C25.816 8.51089 27.4023 7.41256 29.1588 6.6622C30.9153 5.91184 32.8056 5.525 34.7156 5.525C36.6257 5.525 38.5159 5.91184 40.2724 6.6622C42.0289 7.41256 43.6152 8.51089 44.9357 9.89096C46.2562 11.271 47.2836 12.9042 47.9557 14.6921C48.6279 16.48 48.931 18.3855 48.8468 20.2937C48.8887 20.8524 48.8887 21.4136 48.8468 21.9723H54.3506C54.3787 21.4131 54.3787 20.8529 54.3506 20.2937C54.3506 15.0872 52.2843 10.0937 48.6054 6.40961C44.9265 2.72554 39.9358 0.652189 34.7294 0.644897Z" fill="black"/>
<path d="M44.2505 14.1017C43.2847 15.7762 41.895 17.1669 40.2211 18.1339C38.5472 19.1008 36.6482 19.6098 34.7151 19.6098C32.782 19.6098 30.883 19.1008 29.2091 18.1339C27.5352 17.1669 26.1455 15.7762 25.1797 14.1017C25.7255 13.2643 26.3828 12.5051 27.1336 11.8451C27.8398 11.1849 28.6367 10.6289 29.5002 10.194C29.8621 11.2951 30.5625 12.2539 31.5014 12.9336C32.4403 13.6133 33.5698 13.9792 34.7289 13.9792C35.888 13.9792 37.0175 13.6133 37.9564 12.9336C38.8953 12.2539 39.5956 11.2951 39.9575 10.194C40.817 10.6356 41.613 11.191 42.3242 11.8451C43.0739 12.4984 43.723 13.2588 44.2505 14.1017Z" fill="white"/>
<path d="M66.7067 30.2281H2.75193C2.02207 30.2281 1.32211 29.9382 0.806021 29.4221C0.289934 28.906 0 28.206 0 27.4762C0 26.7463 0.289934 26.0464 0.806021 25.5303C1.32211 25.0142 2.02207 24.7242 2.75193 24.7242H66.7067C67.4366 24.7242 68.1365 25.0142 68.6526 25.5303C69.1687 26.0464 69.4586 26.7463 69.4586 27.4762C69.4586 28.206 69.1687 28.906 68.6526 29.4221C68.1365 29.9382 67.4366 30.2281 66.7067 30.2281Z" fill="black"/>
<path d="M55.9192 39.915H13.5395C12.8097 39.915 12.1097 39.6251 11.5936 39.109C11.0775 38.5929 10.7876 37.8929 10.7876 37.1631C10.7876 36.4332 11.0775 35.7332 11.5936 35.2172C12.1097 34.7011 12.8097 34.4111 13.5395 34.4111H55.9192C56.6491 34.4111 57.349 34.7011 57.8651 35.2172C58.3812 35.7332 58.6711 36.4332 58.6711 37.1631C58.6711 37.8929 58.3812 38.5929 57.8651 39.109C57.349 39.6251 56.6491 39.915 55.9192 39.915Z" fill="black"/>
<path d="M42.3244 11.8451C41.69 13.3344 40.6318 14.6043 39.2813 15.4969C37.9309 16.3894 36.3479 16.8653 34.7291 16.8653C33.1104 16.8653 31.5273 16.3894 30.1769 15.4969C28.8264 14.6043 27.7682 13.3344 27.1338 11.8451C27.84 11.1849 28.637 10.6289 29.5004 10.194C29.8624 11.2951 30.5627 12.2539 31.5016 12.9336C32.4405 13.6133 33.57 13.9792 34.7291 13.9792C35.8882 13.9792 37.0177 13.6133 37.9566 12.9336C38.8955 12.2539 39.5958 11.2951 39.9578 10.194C40.8172 10.6356 41.6133 11.191 42.3244 11.8451Z" fill="white"/>
<path d="M42.3242 11.8451C41.613 11.191 40.817 10.6356 39.9575 10.194C39.5956 11.2951 38.8953 12.2539 37.9564 12.9336C37.0175 13.6133 35.888 13.9792 34.7289 13.9792C33.5698 13.9792 32.4403 13.6133 31.5014 12.9336C30.5625 12.2539 29.8621 11.2951 29.5002 10.194C28.6367 10.6289 27.8398 11.1849 27.1336 11.8451C26.3828 12.5051 25.7255 13.2643 25.1797 14.1017C26.1455 15.7762 27.5352 17.1669 29.2091 18.1339C30.883 19.1008 32.782 19.6098 34.7151 19.6098C36.6482 19.6098 38.5472 19.1008 40.2211 18.1339C41.895 17.1669 43.2847 15.7762 44.2505 14.1017C43.723 13.2588 43.0739 12.4984 42.3242 11.8451Z" fill="black"/>
</svg>
