<svg width="51" height="37" viewBox="0 0 51 37" fill="none" xmlns="http://www.w3.org/2000/svg">
<path d="M6.26257 12.664C5.02651 12.6685 3.81696 12.3058 2.78735 11.6218C1.75773 10.9379 0.954426 9.96362 0.479332 8.8225C0.00423704 7.68138 -0.121246 6.42487 0.118799 5.21233C0.358844 3.9998 0.9536 2.88587 1.82763 2.01184C2.70167 1.1378 3.81559 0.543048 5.02813 0.303003C6.24066 0.0629583 7.49718 0.188441 8.63829 0.663536C9.77941 1.13863 10.7537 1.94193 11.4376 2.97155C12.1216 4.00117 12.4843 5.21071 12.4798 6.44677C12.4738 8.09385 11.8169 9.67175 10.6522 10.8364C9.48755 12.0011 7.90964 12.658 6.26257 12.664ZM6.26257 4.74498C5.92506 4.74048 5.59383 4.83645 5.311 5.02069C5.02817 5.20493 4.80652 5.46911 4.67423 5.77965C4.54194 6.09019 4.50499 6.43305 4.56806 6.76465C4.63114 7.09625 4.79141 7.4016 5.02848 7.64187C5.26555 7.88215 5.56872 8.0465 5.89944 8.11402C6.23016 8.18154 6.57349 8.14919 6.88578 8.02108C7.19807 7.89297 7.4652 7.67489 7.65322 7.39456C7.84124 7.11423 7.94165 6.78432 7.94168 6.44677C7.94468 6.22437 7.90347 6.00358 7.82043 5.79724C7.7374 5.59089 7.61419 5.4031 7.45797 5.24477C7.30175 5.08644 7.11563 4.96073 6.91042 4.87493C6.70521 4.78913 6.485 4.74496 6.26257 4.74498Z" fill="black"/>
<path d="M32.9918 32.2235H14.2721C12.1327 32.2235 10.081 31.3736 8.56819 29.8608C7.05543 28.3481 6.20557 26.2963 6.20557 24.1569C6.20557 22.0176 7.05543 19.9658 8.56819 18.4531C10.081 16.9403 12.1327 16.0904 14.2721 16.0904H31.9934C32.4502 16.0934 32.903 16.0057 33.3256 15.8323C33.7481 15.6589 34.132 15.4033 34.455 15.0803C34.778 14.7573 35.0336 14.3734 35.207 13.9509C35.3804 13.5283 35.4681 13.0755 35.4651 12.6188V12.1876C35.4681 11.7309 35.3804 11.2781 35.207 10.8555C35.0336 10.433 34.778 10.0491 34.455 9.72609C34.132 9.40311 33.7481 9.1475 33.3256 8.9741C32.903 8.8007 32.4502 8.71296 31.9934 8.71598H16.6546C16.0528 8.71598 15.4757 8.47692 15.0501 8.05139C14.6246 7.62586 14.3855 7.04871 14.3855 6.44692C14.3855 5.84513 14.6246 5.26798 15.0501 4.84245C15.4757 4.41692 16.0528 4.17786 16.6546 4.17786H31.9934C33.0453 4.17786 34.0869 4.38504 35.0587 4.78757C36.0305 5.19009 36.9134 5.78009 37.6572 6.52387C38.401 7.26765 38.991 8.15064 39.3935 9.12243C39.7961 10.0942 40.0032 11.1358 40.0032 12.1876V12.7095C39.9793 14.8181 39.1249 16.8322 37.6254 18.3147C36.1258 19.7973 34.1021 20.6287 31.9934 20.6286H14.2721C13.3969 20.6993 12.5804 21.0968 11.985 21.7422C11.3896 22.3876 11.0591 23.2335 11.0591 24.1116C11.0591 24.9896 11.3896 25.8355 11.985 26.4809C12.5804 27.1263 13.3969 27.5239 14.2721 27.5946H32.9918C33.5936 27.5946 34.1708 27.8336 34.5963 28.2592C35.0218 28.6847 35.2609 29.2618 35.2609 29.8636C35.2609 30.4654 35.0218 31.0426 34.5963 31.4681C34.1708 31.8936 33.5936 32.1327 32.9918 32.1327V32.2235Z" fill="black"/>
<path d="M40.0035 36.3757C39.5971 36.3692 39.199 36.2599 38.8463 36.058C38.5076 35.8572 38.2269 35.5716 38.032 35.2295C37.8371 34.8874 37.7345 34.5004 37.7345 34.1066V24.2816C37.731 23.8726 37.8382 23.4704 38.0446 23.1174C38.251 22.7643 38.5489 22.4736 38.907 22.276C39.265 22.0784 39.6698 21.9813 40.0785 21.9948C40.4872 22.0083 40.8846 22.132 41.2288 22.3529L49.5563 27.6398C49.8882 27.8522 50.1591 28.1475 50.3422 28.4965C50.5253 28.8454 50.6144 29.2361 50.6007 29.63C50.587 30.0238 50.4709 30.4073 50.2639 30.7427C50.0568 31.0781 49.7661 31.3537 49.4201 31.5426L41.0927 36.0807C40.7602 36.2691 40.3856 36.3706 40.0035 36.3757ZM42.2726 28.4112V30.2719L43.8609 29.4096L42.2726 28.4112Z" fill="black"/>
</svg>
