<svg width="137" height="149" viewBox="0 0 137 149" fill="none" xmlns="http://www.w3.org/2000/svg">
<path d="M116.453 42.9761L109.437 24.387V16.7608H26.6921V24.8446L18.9514 42.3851V12.6235L25.5672 9.02008H110.238L116.453 15.3118V42.9761ZM20.8389 13.7674V33.2907L24.7855 24.1964V14.9305H111.344V24.2155L114.547 32.6234V16.0172L109.456 10.9267H26.0629L20.8389 13.7674Z" fill="white"/>
<path d="M114.032 13.1955H112.126V7.53296L106.559 1.96578H29.4378L23.7181 7.68549V11.6321H21.8115V6.90379L28.6561 0.0592041H107.34L114.032 6.75127V13.1955Z" fill="white"/>
<path d="M111.859 25.5882H24.8618V27.4948H111.859V25.5882Z" fill="white"/>
<path d="M42.3831 77.2563H27.4355L24.3469 72.4517H10.0476L21.9255 55.7502L30.2382 34.5681V26.5415H32.1448L32.0876 35.102L23.5461 56.7606L13.7464 70.5451H25.3764L28.4842 75.3497H40.4765V70.5451H95.7099V74.1676H107.836L112.068 69.935H122.44L112.164 56.4937L105.09 33.7483L106.215 26.408L108.084 26.694L107.054 33.5958L113.937 55.7692L126.329 71.8416H112.85L108.617 76.0742H93.8033V72.4517H42.3831V77.2563Z" fill="white"/>
<path d="M106.063 33.7864H31.1917V35.693H106.063V33.7864Z" fill="white"/>
<path d="M115.5 58.648H19.8855V60.0779H115.5V58.648Z" fill="white"/>
<path d="M36.7588 56.2077H35.3289V67.7997H36.7588V56.2077Z" fill="white"/>
<path d="M57.7693 56.2077H56.3394V67.7997H57.7693V56.2077Z" fill="white"/>
<path d="M78.7795 56.2077H77.3496V67.7997H78.7795V56.2077Z" fill="white"/>
<path d="M99.79 56.2077H98.3601V67.7997H99.79V56.2077Z" fill="white"/>
<path d="M78.6271 41.6225H59.142L56.1868 35.1401L57.9217 34.3584L60.3622 39.7159H77.5022L80.4574 34.2822L82.1352 35.1973L78.6271 41.6225Z" fill="white"/>
<path d="M136.11 148.276H110.905V123.986L111.706 123.853C129.094 120.936 133.46 93.9387 134.127 89.2104L123.431 84.7491V80.7262L116.301 79.792L113.822 89.668H105.109V82.7281H95.4239L92.7356 89.9349H74.3563V85.0732H60.1523V89.9349H46.1962L42.9932 82.7853L32.1448 83.567V89.668H24.08L22.0018 79.8683L12.8503 80.8406V84.8635L2.07816 89.2104C2.78359 93.7481 7.3975 118.61 25.1286 123.796L25.815 123.986V148.276H0V89.8015H0.228789C0.228789 89.2105 0.0953286 88.8482 0.0762629 88.7147V88.0093L11.02 83.4907V79.0294L23.5843 77.6948L25.6243 87.7615H30.2382V81.7939L44.1753 80.7834L47.4355 88.0284H58.2458V83.1666H76.2629V88.0284H91.3438L94.0512 80.8215H106.959V87.7615H112.278L114.718 77.771L125.281 79.1438V83.5861L136.129 88.1046V88.8101C136.129 88.9245 136.129 89.2867 135.996 89.8396H136.129L136.11 148.276ZM112.812 146.369H134.204V98.7052C131.553 108.734 125.643 122.881 112.812 125.493V146.369ZM1.90657 146.369H23.8321V125.397C10.734 121.146 4.65203 107.189 1.90657 97.7519V146.369Z" fill="white"/>
<path d="M45.205 98.1332H11.8972V99.5631H45.205V98.1332Z" fill="white"/>
<path d="M31.7637 114.034L24.4043 111.022L15.3672 99.2773L16.4921 98.4193L25.3004 109.84L30.6388 112.032L32.8314 98.7244L34.2422 98.9722L31.7637 114.034Z" fill="white"/>
<path d="M57.7693 128.467H56.3393V119.83L53.5367 113.748H31.1917V112.318H54.4518L57.7693 119.677V128.467Z" fill="white"/>
<path d="M125.872 98.1332H92.5642V99.5631H125.872V98.1332Z" fill="white"/>
<path d="M106.025 114.034L103.546 98.9722L104.957 98.7244L107.13 112.032L112.469 109.84L121.277 98.4193L122.402 99.2773L113.365 111.022L106.025 114.034Z" fill="white"/>
<path d="M81.4299 128.467H80L80.0763 119.372L83.3174 112.318H106.578V113.748H84.2326L81.4299 119.83V128.467Z" fill="white"/>
<path d="M40.5719 113.462L39.428 112.604L44.8426 105.226H92.1065L96.6251 112.661L95.4049 113.405L91.3058 106.656H45.5671L40.5719 113.462Z" fill="white"/>
<path d="M68.6366 121.47C67.6435 121.473 66.6716 121.183 65.8431 120.636C65.0146 120.088 64.3666 119.308 63.9806 118.393C63.5945 117.478 63.4878 116.469 63.6738 115.494C63.8597 114.518 64.3301 113.62 65.0256 112.911C65.7211 112.202 66.6108 111.715 67.5826 111.511C68.5544 111.306 69.5649 111.394 70.487 111.763C71.409 112.132 72.2014 112.765 72.7644 113.583C73.3274 114.401 73.6358 115.367 73.6508 116.36C73.6609 117.026 73.5388 117.687 73.2916 118.305C73.0444 118.924 72.6769 119.487 72.2105 119.962C71.7442 120.437 71.1881 120.815 70.5746 121.074C69.9612 121.333 69.3024 121.467 68.6366 121.47ZM68.6366 112.852C67.9191 112.848 67.2168 113.059 66.6198 113.457C66.0229 113.855 65.5583 114.422 65.2856 115.086C65.013 115.75 64.9447 116.48 65.0894 117.183C65.2342 117.885 65.5855 118.529 66.0983 119.031C66.6111 119.533 67.262 119.87 67.9677 120C68.6734 120.129 69.4017 120.045 70.0594 119.758C70.7171 119.471 71.2741 118.995 71.6592 118.389C72.0443 117.784 72.2399 117.077 72.2209 116.36C72.1962 115.424 71.8082 114.535 71.1392 113.88C70.4702 113.225 69.5726 112.857 68.6366 112.852Z" fill="white"/>
<path d="M104.614 136.436H30.7721L22.7073 127.513H114.394L104.614 136.436ZM31.611 134.53H103.87L109.418 129.42H27.0161L31.611 134.53Z" fill="white"/>
</svg>
