<svg width="94" height="62" viewBox="0 0 94 62" fill="none" xmlns="http://www.w3.org/2000/svg">
<path d="M64.6673 14.7696L59.4095 11.1511C58.2132 15.2939 57.4008 23.5795 57.4008 23.5795C52.6525 19.6434 54.9565 11.86 56.1159 8.86187L48.3694 3.58186C47.4785 3.01591 46.4641 2.67339 45.4124 2.58339C44.3608 2.4934 43.3029 2.65859 42.3288 3.06493L4.00991 19.0231C3.22805 19.3388 2.51616 19.8057 1.91502 20.397C1.31389 20.9883 0.83532 21.6923 0.506733 22.4689C0.178147 23.2454 0.00599966 24.0791 0.000154051 24.9223C-0.00569155 25.7655 0.154879 26.6015 0.472667 27.3825L13.2186 57.9845C13.5494 58.7591 14.0296 59.461 14.6318 60.0499C15.2341 60.6388 15.9465 61.1033 16.7283 61.4167C17.5102 61.7301 18.3461 61.8864 19.1884 61.8765C20.0307 61.8667 20.8627 61.6909 21.637 61.3593L59.9633 45.4011C60.9389 44.9957 61.8017 44.3601 62.4782 43.5486C63.1546 42.7371 63.6245 41.7739 63.8476 40.7414L67.3996 21.305C67.6625 20.067 67.5418 18.7784 67.0536 17.6108C66.5655 16.4432 65.7331 15.4521 64.6673 14.7696ZM53.0734 26.7327L48.9897 28.4312C49.878 30.5925 49.8766 33.0171 48.9859 35.1774C48.0953 37.3376 46.3874 39.0587 44.234 39.966L42.9934 40.4681C42.3598 40.7315 41.6476 40.7325 41.0133 40.4707C40.379 40.209 39.8747 39.706 39.6113 39.0724C39.3478 38.4388 39.3469 37.7266 39.6086 37.0923C39.8704 36.458 40.3734 35.9537 41.0069 35.6903L42.2476 35.1955C42.6931 35.0158 43.0986 34.7497 43.4408 34.4126C43.783 34.0755 44.0551 33.674 44.2414 33.2312C44.4279 32.7895 44.5239 32.3149 44.5239 31.8355C44.5239 31.3561 44.4279 30.8815 44.2414 30.4398L42.2254 25.5955C42.0404 25.1521 41.7699 24.7495 41.4292 24.4108C41.0885 24.0721 40.6844 23.8038 40.24 23.6214C39.7955 23.4389 39.3195 23.3459 38.8391 23.3476C38.3587 23.3493 37.8833 23.4456 37.4402 23.6312C36.5463 24.0056 35.8355 24.7164 35.4611 25.6103C35.0867 26.5041 35.0788 27.5093 35.4389 28.409L37.4919 33.2312C37.9378 34.3013 38.1685 35.4488 38.1709 36.608C38.1732 37.7673 37.9471 38.9157 37.5055 39.9876C37.0638 41.0595 36.4153 42.0339 35.597 42.855C34.7786 43.6762 33.8065 44.328 32.7362 44.7734L32.33 44.9358C31.2614 45.3817 30.1154 45.6126 28.9575 45.6152C27.7996 45.6179 26.6526 45.3923 25.582 44.9513C24.5114 44.5103 23.5382 43.8625 22.7181 43.0451C21.898 42.2277 21.2471 41.2567 20.8026 40.1875V40.1506L16.1207 42.1001C15.8057 42.2409 15.4658 42.3172 15.1208 42.3244C14.7759 42.3317 14.433 42.2699 14.1124 42.1426C13.7917 42.0153 13.4998 41.825 13.2538 41.5831C13.0079 41.3412 12.8128 41.0525 12.6802 40.734C12.5476 40.4155 12.4801 40.0737 12.4816 39.7287C12.4832 39.3837 12.5538 39.0425 12.6893 38.7252C12.8248 38.4079 13.0225 38.121 13.2707 37.8813C13.5188 37.6416 13.8125 37.4541 14.1342 37.3297L18.794 35.4466V35.4023C17.9057 33.241 17.9071 30.8163 18.7978 28.6561C19.6884 26.4958 21.3963 24.7747 23.5497 23.8675L24.6574 23.4022C24.9711 23.2718 25.3074 23.2044 25.6472 23.204C25.9869 23.2035 26.3234 23.27 26.6375 23.3996C26.9516 23.5292 27.237 23.7194 27.4776 23.9593C27.7181 24.1992 27.9091 24.4842 28.0395 24.7979C28.17 25.1116 28.2373 25.448 28.2378 25.7877C28.2382 26.1275 28.1717 26.464 28.0421 26.7781C27.9125 27.0921 27.7223 27.3776 27.4824 27.6181C27.2425 27.8587 26.9575 28.0497 26.6438 28.1801L25.5361 28.6379C24.6539 29.0152 23.9532 29.721 23.5824 30.606C23.2116 31.4909 23.1999 32.4854 23.5497 33.3789L25.5731 38.2306C25.7565 38.6734 26.0256 39.0757 26.3649 39.4142C26.7042 39.7528 27.1071 40.0211 27.5503 40.2036C27.9935 40.3861 28.4684 40.4793 28.9478 40.4778C29.4271 40.4763 29.9014 40.3802 30.3435 40.1949L30.7571 40.0324C31.1989 39.8466 31.5999 39.5755 31.9369 39.2347C32.274 38.8938 32.5405 38.4899 32.7214 38.046C32.9076 37.6029 33.0036 37.1272 33.0036 36.6466C33.0036 36.166 32.9076 35.6902 32.7214 35.2472L30.698 30.3955C30.207 29.318 29.9378 28.1526 29.9066 26.9689C29.8753 25.7852 30.0827 24.6073 30.5162 23.5054C30.9497 22.4034 31.6005 21.4 32.43 20.5549C33.2594 19.7098 34.2504 19.0402 35.344 18.5861C36.4376 18.132 37.6114 17.9027 38.7955 17.9117C39.9796 17.9208 41.1498 18.168 42.2363 18.6388C43.3229 19.1095 44.3036 19.7941 45.12 20.6518C45.9364 21.5095 46.5719 22.5227 46.9885 23.6312V23.6681L51.0722 21.9622C51.7058 21.6988 52.4181 21.6979 53.0523 21.9596C53.6866 22.2213 54.1909 22.7243 54.4544 23.3579C54.7178 23.9915 54.7187 24.7038 54.457 25.3381C54.1952 25.9723 53.6923 26.4767 53.0587 26.7401L53.0734 26.7327Z" fill="#1A1A1A"/>
<path d="M56.5444 22.4865C53.5167 15.22 59.0256 6.24033 69.0982 2.05324C79.1709 -2.13385 89.4134 0.273539 92.4337 7.54002C95.454 14.8065 89.9525 23.7862 79.8798 27.9659C79.5648 28.1067 79.2249 28.183 78.8799 28.1903C78.535 28.1975 78.1921 28.1357 77.8715 28.0084C77.5508 27.8811 77.2589 27.6908 77.0129 27.4489C76.767 27.207 76.5719 26.9183 76.4393 26.5998C76.3067 26.2813 76.2392 25.9395 76.2407 25.5945C76.2423 25.2495 76.3129 24.9083 76.4484 24.591C76.5839 24.2737 76.7816 23.9868 77.0298 23.7471C77.2779 23.5074 77.5716 23.3199 77.8934 23.1955C85.0343 20.2416 89.502 13.9573 87.6558 9.52649C85.8097 5.09571 78.2183 3.85509 71.0773 6.8311C63.9364 9.80711 59.4687 16.0619 61.2853 20.5001C61.5283 21.1287 61.5162 21.8274 61.2514 22.4473C60.9867 23.0671 60.4903 23.559 59.8681 23.8181C59.2459 24.0772 58.5471 24.0829 57.9207 23.8342C57.2943 23.5855 56.7898 23.1019 56.5148 22.4865H56.5444Z" fill="#1A1A1A"/>
</svg>
