<svg width="87" height="14" viewBox="0 0 87 14" fill="none" xmlns="http://www.w3.org/2000/svg">
<path d="M72.4814 13.4949C68.3492 13.4949 66.2644 10.163 64.4403 7.24069C62.6162 4.31836 61.0899 1.86136 57.9814 1.86136C54.8729 1.86136 53.2349 4.46727 51.5225 7.24069C49.81 10.0141 47.6136 13.4949 43.4814 13.4949C39.3492 13.4949 37.2272 10.163 35.3659 7.24069C33.5045 4.31836 32.0899 1.86136 28.9814 1.86136C25.8729 1.86136 24.1977 4.46727 22.5225 7.24069C20.8472 10.0141 18.6136 13.4949 14.5 13.4949C10.3864 13.4949 8.28306 10.163 6.45892 7.24069C4.63479 4.31836 3.10847 1.86136 0 1.86136V0C4.13222 0 6.21694 3.33184 8.04108 6.25417C9.86521 9.17651 11.3915 11.6335 14.5 11.6335C17.6085 11.6335 19.2279 9.0276 20.9403 6.25417C22.6528 3.48074 24.8492 0 28.9814 0C33.1136 0 35.1983 3.33184 37.0225 6.25417C38.8466 9.17651 40.3729 11.6335 43.4814 11.6335C46.5899 11.6335 48.2092 9.0276 49.9403 6.25417C51.6714 3.48074 53.8306 0 57.9814 0C62.1322 0 64.1983 3.33184 66.0225 6.25417C67.8466 9.17651 69.3729 11.6335 72.4814 11.6335C75.5899 11.6335 77.2279 9.0276 78.9589 6.25417C80.69 3.48074 82.8492 0 87 0V1.86136C83.8915 1.86136 82.2535 4.46727 80.5225 7.24069C78.7914 10.0141 76.6322 13.4949 72.4814 13.4949Z" fill="black"/>
</svg>
