<svg width="317" height="152" viewBox="0 0 317 152" fill="none" xmlns="http://www.w3.org/2000/svg">
<path d="M31.1343 32.7166L6.53954 20.9721L6.04383 17.5212H0V0.533691H106.94V5.12853H83.0693L31.1343 32.7166ZM8.25545 19.6947L31.1343 30.5813L82.6117 3.22196H105.033V2.44026H1.90657V15.6147H7.62628L8.25545 19.6947Z" fill="white"/>
<path d="M35.2905 110.428L6.46313 81.601V20.3429H8.36971V80.8193L36.6442 109.094L35.2905 110.428Z" fill="white"/>
<path d="M30.5815 105.338H13.4604V100.19H20.8961L21.5634 96.1483L23.4318 96.4534L22.4976 102.097H15.367V103.431H30.5815V105.338Z" fill="white"/>
<path d="M60.7434 124.728H53.0409L52.7739 124.404L13.4604 80.4952V23.6794H15.367V79.7707L53.8988 122.821H60.7434V124.728Z" fill="white"/>
<path d="M36.9112 97.254H26.8635V95.3474H35.0046V86.4819H30.1619V31.6489H32.0685V84.5753H36.9112V97.254Z" fill="white"/>
<path d="M305.147 130.638H296.148V128.731H304.384L310.218 123.355V116.834L314.451 112.602V101.41L309.742 96.682V92.4304L307.11 90.2378H301.658V84.3084L288.216 71.0768H262.096L261.81 70.8098C244.365 53.9367 219.294 32.2208 198.893 24.4992C161.239 10.2953 75.8624 9.24666 74.9663 9.24666V7.34009C75.8243 7.34009 161.544 8.40777 199.504 22.7261C220.133 30.524 245.261 52.2398 262.84 69.1893H288.979L303.545 83.4504V88.274H307.778L311.591 91.4771V95.8622L316.3 100.571V113.345L312.068 117.597V124.137L305.147 130.638Z" fill="white"/>
<path d="M302.478 124.728H296.148V122.821H300.571V110.009L293.441 97.2541H244.995L237.845 110.009V124.728H132.812L132.583 124.099C132.45 123.774 119.485 90.7908 88.2172 90.7908C59.5233 90.7908 45.8723 114.432 45.7388 114.661L44.0801 113.727C44.2135 113.479 58.3794 88.9414 88.2172 88.9414C118.379 88.9414 132.068 118.226 134.108 122.878H235.938V109.532L243.87 95.3666H294.546L302.478 109.532V124.728Z" fill="white"/>
<path d="M236.891 114.966H129.361V116.396H236.891V114.966Z" fill="white"/>
<path d="M236.892 110.924H126.73V112.354H236.892V110.924Z" fill="white"/>
<path d="M139.942 64.3276H31.4202V65.7576H139.942V64.3276Z" fill="white"/>
<path d="M157.54 79.237H31.4202V80.6669H157.54V79.237Z" fill="white"/>
<path d="M41.5822 65.052H39.6756V61.5057L37.178 59.0081H31.4202V57.1016H37.9788L41.5822 60.705V65.052Z" fill="white"/>
<path d="M38.6843 78.2456H31.1152V76.8157H38.0933L39.9236 74.9854V70.6193H44.1943V65.0521H45.6242V72.0492H41.3535V75.5764L38.6843 78.2456Z" fill="white"/>
<path d="M75.0045 37.5402L51.363 28.0073L71.4202 15.6146H121.182L75.0045 37.5402ZM55.5766 27.7023L74.9283 35.462L112.717 17.5212H71.9731L55.5766 27.7023Z" fill="white"/>
<path d="M202.192 32.5069L140.686 28.8463L151.896 18.8177H152.221C189.341 22.9169 199.885 30.7148 200.342 31.0389L202.192 32.5069ZM144.194 27.6261L196.911 30.7529C191.953 28.2934 179.141 23.2791 152.373 20.3049L144.194 27.6261Z" fill="white"/>
<path d="M217.197 103.889H209.57L164.461 86.0814L117.807 47.9499L134.28 38.1311H205.319L205.605 38.4171L243.622 76.0528L217.197 103.889ZM210.142 101.982H216.377L240.953 76.0337L204.537 39.9614H134.814L121.125 48.1978L165.567 84.4227L210.142 101.982Z" fill="white"/>
<path d="M165.281 86.2721L164.861 84.4037L207.568 75.233V69.9709H145.147V68.0643H209.475V76.7774L165.281 86.2721Z" fill="white"/>
<path d="M221.166 70.7225L220.284 71.8476L235.21 83.5556L236.093 82.4305L221.166 70.7225Z" fill="white"/>
<path d="M223.359 64.6471L215.094 77.1247L216.286 77.9143L224.551 65.4368L223.359 64.6471Z" fill="white"/>
<path d="M223.526 93.8222L210.428 83.9271L199.999 83.7174L192.278 86.1197L184.404 81.7346L185.109 80.4953L192.449 84.5754L199.809 82.2875L210.924 82.5163L224.384 92.6783L223.526 93.8222Z" fill="white"/>
<path d="M220.4 96.9299L208.35 90.5429H190.428L185.624 93.8413L184.823 92.6592L189.99 89.113L208.865 89.2083L221.067 95.6716L220.4 96.9299Z" fill="white"/>
<path d="M184.384 69.6088C171.61 60.1903 175.481 49.9901 176.129 48.6365V46.5583H173.498C172.506 47.7594 168.293 53.2313 168.598 57.9977C168.941 63.4315 173.631 68.4839 173.688 68.5411L172.64 69.5134C172.43 69.2846 167.549 64.0225 167.168 58.074C166.787 52.1255 172.392 45.6241 172.621 45.3572L172.85 45.1093H177.483V49.0178C177.273 49.4182 172.545 59.0845 185.242 68.4267L184.384 69.6088Z" fill="white"/>
<path d="M302.611 91.1531H282.096L261.81 70.8671L263.145 69.5325L282.878 89.2465H302.611V91.1531Z" fill="white"/>
<path d="M302.611 82.9547H276.186V84.8613H302.611V82.9547Z" fill="white"/>
<path d="M296.11 76.5677H272.239V78.4743H296.11V76.5677Z" fill="white"/>
<path d="M299.732 79.9614H298.302V73.4219H291.172V71.9919H299.732V79.9614Z" fill="white"/>
<path d="M242.287 128.731H114.795V130.638H242.287V128.731Z" fill="white"/>
<path d="M88.2169 151.649C82.6993 151.649 77.3057 150.012 72.7183 146.946C68.1309 143.881 64.5558 139.523 62.4452 134.425C60.3346 129.327 59.7833 123.718 60.8611 118.307C61.9389 112.895 64.5974 107.925 68.5002 104.025C72.403 100.125 77.3749 97.47 82.7869 96.3959C88.1989 95.3218 93.8079 95.8769 98.9043 97.991C104.001 100.105 108.356 103.683 111.418 108.273C114.481 112.862 116.114 118.257 116.11 123.774C116.095 131.166 113.151 138.25 107.922 143.474C102.694 148.699 95.6082 151.638 88.2169 151.649ZM88.2169 97.7879C83.0772 97.7879 78.053 99.312 73.7795 102.167C69.506 105.023 66.1753 109.081 64.2084 113.83C62.2416 118.578 61.7269 123.803 62.7296 128.844C63.7323 133.885 66.2073 138.515 69.8416 142.15C73.4759 145.784 78.1062 148.259 83.1472 149.262C88.1881 150.264 93.4131 149.75 98.1615 147.783C102.91 145.816 106.968 142.485 109.824 138.212C112.679 133.938 114.203 128.914 114.203 123.774C114.198 116.882 111.46 110.273 106.588 105.398C101.716 100.523 95.1091 97.7789 88.2169 97.7688V97.7879Z" fill="white"/>
<path d="M88.2172 142.497C84.5088 142.501 80.8827 141.404 77.7978 139.346C74.7128 137.288 72.3077 134.362 70.8868 130.936C69.466 127.511 69.0932 123.741 69.8157 120.104C70.5383 116.466 72.3236 113.125 74.9458 110.503C77.568 107.881 80.9092 106.096 84.5465 105.373C88.1838 104.65 91.9537 105.023 95.3791 106.444C98.8044 107.865 101.731 110.27 103.789 113.355C105.847 116.44 106.944 120.066 106.94 123.774C106.935 128.738 104.961 133.498 101.45 137.008C97.9404 140.518 93.1812 142.492 88.2172 142.497ZM88.2172 106.939C84.8867 106.936 81.63 107.92 78.859 109.767C76.088 111.615 73.9272 114.243 72.6501 117.319C71.373 120.395 71.0368 123.78 71.6843 127.047C72.3317 130.314 73.9336 133.316 76.2872 135.672C78.6409 138.028 81.6406 139.633 84.9068 140.285C88.173 140.936 91.5589 140.603 94.6362 139.33C97.7135 138.056 100.344 135.898 102.195 133.129C104.045 130.361 105.033 127.105 105.033 123.774C105.028 119.314 103.255 115.038 100.103 111.883C96.9515 108.727 92.6773 106.95 88.2172 106.939Z" fill="white"/>
<path d="M267.778 151.649C262.26 151.649 256.867 150.012 252.279 146.946C247.692 143.881 244.117 139.523 242.006 134.425C239.896 129.327 239.344 123.718 240.422 118.307C241.5 112.895 244.158 107.925 248.061 104.025C251.964 100.125 256.936 97.47 262.348 96.3959C267.76 95.3218 273.369 95.8769 278.465 97.991C283.562 100.105 287.917 103.683 290.979 108.273C294.042 112.862 295.675 118.257 295.671 123.774C295.661 131.167 292.718 138.254 287.489 143.48C282.26 148.706 275.171 151.644 267.778 151.649ZM267.778 97.7879C262.638 97.7879 257.614 99.312 253.341 102.167C249.067 105.023 245.736 109.081 243.769 113.83C241.803 118.578 241.288 123.803 242.291 128.844C243.293 133.885 245.768 138.515 249.403 142.15C253.037 145.784 257.667 148.259 262.708 149.262C267.749 150.264 272.974 149.75 277.723 147.783C282.471 145.816 286.53 142.485 289.385 138.212C292.24 133.938 293.764 128.914 293.764 123.774C293.759 116.882 291.021 110.273 286.149 105.398C281.277 100.523 274.67 97.7789 267.778 97.7688V97.7879Z" fill="white"/>
<path d="M267.778 142.497C264.069 142.501 260.443 141.404 257.358 139.346C254.273 137.288 251.868 134.362 250.447 130.936C249.026 127.511 248.654 123.741 249.376 120.104C250.099 116.466 251.884 113.125 254.506 110.503C257.129 107.881 260.47 106.096 264.107 105.373C267.744 104.65 271.514 105.023 274.94 106.444C278.365 107.865 281.292 110.27 283.35 113.355C285.408 116.44 286.504 120.066 286.5 123.774C286.495 128.738 284.521 133.498 281.011 137.008C277.501 140.518 272.742 142.492 267.778 142.497ZM267.778 106.939C264.447 106.936 261.191 107.92 258.42 109.767C255.649 111.615 253.488 114.243 252.211 117.319C250.934 120.395 250.597 123.78 251.245 127.047C251.892 130.314 253.494 133.316 255.848 135.672C258.201 138.028 261.201 139.633 264.467 140.285C267.734 140.936 271.119 140.603 274.197 139.33C277.274 138.056 279.904 135.898 281.755 133.129C283.606 130.361 284.594 127.105 284.594 123.774C284.594 119.313 282.823 115.034 279.67 111.877C276.517 108.72 272.239 106.944 267.778 106.939Z" fill="white"/>
</svg>
