<svg width="20" height="20" viewBox="0 0 20 20" fill="none" xmlns="http://www.w3.org/2000/svg">
<path fill-rule="evenodd" clip-rule="evenodd" d="M10.713 14.712C10.521 14.904 10.2833 15 10 15C9.71667 15 9.47933 14.9083 9.288 14.725C9.096 14.5417 9 14.3083 9 14.025V11H6C5.71667 11 5.479 10.904 5.287 10.712C5.09567 10.5207 5 10.2833 5 10C5 9.71667 5.09167 9.479 5.275 9.287C5.45833 9.09567 5.69167 9 5.975 9H6H9V6C9 5.71667 9.096 5.479 9.288 5.287C9.47933 5.09567 9.71667 5 10 5C10.2833 5 10.521 5.09167 10.713 5.275C10.9043 5.45833 11 5.69167 11 5.975V9H14C14.2833 9 14.5207 9.09567 14.712 9.287C14.904 9.479 15 9.71667 15 10C15 10.2833 14.9083 10.5207 14.725 10.712C14.5417 10.904 14.3083 11 14.025 11H14H11V14C11 14.2833 10.9043 14.5207 10.713 14.712ZM6.1 19.212C7.31667 19.7373 8.61667 20 10 20C11.3833 20 12.6833 19.7373 13.9 19.212C15.1167 18.6873 16.175 17.975 17.075 17.075C17.975 16.175 18.6873 15.1167 19.212 13.9C19.7373 12.6833 20 11.3833 20 10C20 8.61667 19.7373 7.31667 19.212 6.1C18.6873 4.88333 17.975 3.825 17.075 2.925C16.175 2.025 15.1167 1.31233 13.9 0.787C12.6833 0.262333 11.3833 0 10 0C8.61667 0 7.31667 0.262333 6.1 0.787C4.88333 1.31233 3.825 2.025 2.925 2.925C2.025 3.825 1.31267 4.88333 0.788 6.1C0.262667 7.31667 0 8.61667 0 10C0 11.3833 0.262667 12.6833 0.788 13.9C1.31267 15.1167 2.025 16.175 2.925 17.075C3.825 17.975 4.88333 18.6873 6.1 19.212Z" fill="#F15443"/>
</svg>
