<svg width="248" height="56" viewBox="0 0 248 56" fill="none" xmlns="http://www.w3.org/2000/svg">
<path d="M34.9502 33V34H35.9502V33H34.9502ZM0.450196 33H-0.549804V34H0.450196V33ZM0.450196 26.25V25.25H-0.549804V26.25H0.450196ZM34.9502 26.25H35.9502V25.25H34.9502V26.25ZM34.9502 32H0.450196V34H34.9502V32ZM1.4502 33V26.25H-0.549804V33H1.4502ZM0.450196 27.25H34.9502V25.25H0.450196V27.25ZM33.9502 26.25V33H35.9502V26.25H33.9502ZM62.6797 27.375L62.115 26.5497L62.0934 26.5645L62.0726 26.5803L62.6797 27.375ZM67.6297 22.65L66.8347 22.0433L66.8323 22.0466L67.6297 22.65ZM66.7297 8.475L67.4095 7.74157L66.7297 8.475ZM47.1547 7.2L47.4663 8.15027L47.4755 8.14714L47.1547 7.2ZM38.3047 12.375L37.5047 12.975L38.146 13.8301L38.9566 13.1333L38.3047 12.375ZM34.9297 7.875L34.2778 7.11668L33.5684 7.72656L34.1297 8.475L34.9297 7.875ZM44.9797 2.1L44.6418 1.15879L44.6379 1.1602L44.9797 2.1ZM75.6547 4.34999L75.0615 5.15505L75.0734 5.1638L75.0855 5.17219L75.6547 4.34999ZM80.0047 9.225L79.1102 9.67224L79.1151 9.6818L80.0047 9.225ZM80.4547 21.45L81.3922 21.7982L81.3952 21.7896L80.4547 21.45ZM77.8297 26.25L77.033 25.6456L77.0263 25.6545L77.0198 25.6635L77.8297 26.25ZM74.1547 30.225L74.8055 30.9843L74.1547 30.225ZM69.8047 33.75L70.4121 34.5444L70.4131 34.5436L69.8047 33.75ZM50.6797 48.375L50.0722 47.5806L47.7258 49.375H50.6797V48.375ZM82.1797 48.375H83.1797V47.375H82.1797V48.375ZM82.1797 54V55H83.1797V54H82.1797ZM35.6797 54H34.6797V55H35.6797V54ZM35.6797 48L35.0726 47.2053L34.6797 47.5055V48H35.6797ZM63.2444 28.2003C65.2341 26.8389 66.9625 25.1888 68.4271 23.2534L66.8323 22.0466C65.4969 23.8112 63.9253 25.3111 62.115 26.5497L63.2444 28.2003ZM68.4246 23.2567C70.0112 21.1777 70.8047 18.7883 70.8047 16.125H68.8047C68.8047 18.3617 68.1482 20.3223 66.8347 22.0433L68.4246 23.2567ZM70.8047 16.125C70.8047 12.6909 69.694 9.85898 67.4095 7.74157L66.0499 9.20843C67.8653 10.891 68.8047 13.1591 68.8047 16.125H70.8047ZM67.4095 7.74157C65.1022 5.60318 61.7119 4.625 57.4297 4.625V6.625C61.4475 6.625 64.2571 7.54682 66.0499 9.20843L67.4095 7.74157ZM57.4297 4.625C53.5862 4.625 50.0511 5.16317 46.8339 6.25286L47.4755 8.14714C50.4583 7.13683 53.7732 6.625 57.4297 6.625V4.625ZM46.8431 6.24977C43.6487 7.29712 40.5857 9.0954 37.6528 11.6167L38.9566 13.1333C41.7237 10.7546 44.5607 9.10288 47.4662 8.15023L46.8431 6.24977ZM39.1047 11.775L35.7297 7.275L34.1297 8.475L37.5047 12.975L39.1047 11.775ZM35.5816 8.63332C38.3321 6.26884 41.5747 4.40224 45.3214 3.03979L44.6379 1.1602C40.6847 2.59775 37.2273 4.58116 34.2778 7.11668L35.5816 8.63332ZM45.3176 3.04119C49.0914 1.68648 53.3743 0.999998 58.1797 0.999998V-1C53.185 -1 48.668 -0.286486 44.6418 1.1588L45.3176 3.04119ZM58.1797 0.999998C62.0703 0.999998 65.4073 1.36977 68.2043 2.09314L68.7051 0.156849C65.7021 -0.61978 62.189 -1 58.1797 -1V0.999998ZM68.2043 2.09314C71.0126 2.81943 73.2879 3.84818 75.0615 5.15505L76.2479 3.54494C74.2215 2.05181 71.6968 0.930565 68.7051 0.156849L68.2043 2.09314ZM75.0855 5.17219C76.9137 6.43786 78.2439 7.93943 79.1103 9.67221L80.8991 8.77779C79.8655 6.71057 78.2957 4.96213 76.2239 3.5278L75.0855 5.17219ZM79.1151 9.6818C79.9867 11.3791 80.4297 13.2706 80.4297 15.375H82.4297C82.4297 12.9794 81.9227 10.7709 80.8943 8.7682L79.1151 9.6818ZM80.4297 15.375C80.4297 17.5291 80.1186 19.4365 79.5141 21.1104L81.3952 21.7896C82.0908 19.8635 82.4297 17.7209 82.4297 15.375H80.4297ZM79.5173 21.1018C78.9005 22.7624 78.0723 24.2757 77.033 25.6456L78.6264 26.8544C79.7871 25.3243 80.7089 23.6376 81.3921 21.7982L79.5173 21.1018ZM77.0198 25.6635C76.0172 27.048 74.846 28.3153 73.5039 29.4657L74.8055 30.9843C76.2633 29.7347 77.5422 28.352 78.6396 26.8365L77.0198 25.6635ZM73.5039 29.4657C72.118 30.6536 70.6822 31.8172 69.1963 32.9564L70.4131 34.5436C71.9272 33.3828 73.3913 32.1964 74.8055 30.9843L73.5039 29.4657ZM69.1972 32.9556L50.0722 47.5806L51.2871 49.1694L70.4121 34.5444L69.1972 32.9556ZM50.6797 49.375H82.1797V47.375H50.6797V49.375ZM81.1797 48.375V54H83.1797V48.375H81.1797ZM82.1797 53H35.6797V55H82.1797V53ZM36.6797 54V48H34.6797V54H36.6797ZM36.2867 48.7947L63.2867 28.1697L62.0726 26.5803L35.0726 47.2053L36.2867 48.7947ZM109.512 6.525L109.909 7.44286L109.919 7.43838L109.929 7.43368L109.512 6.525ZM104.562 10.425L103.783 9.79767L103.778 9.80432L103.773 9.81106L104.562 10.425ZM101.112 17.4L100.158 17.0989L100.156 17.1065L100.154 17.1142L101.112 17.4ZM101.112 38.1L100.154 38.3858L100.156 38.3935L100.158 38.4011L101.112 38.1ZM104.562 45.075L103.773 45.6889L103.778 45.6957L103.783 45.7023L104.562 45.075ZM109.512 49.05L109.094 49.9587L109.105 49.9634L109.115 49.9679L109.512 49.05ZM120.912 49.05L121.309 49.9679L121.319 49.9634L121.329 49.9587L120.912 49.05ZM125.787 45.075L125.008 44.4477L125.003 44.4543L124.998 44.4611L125.787 45.075ZM129.237 38.1L128.283 37.7989L128.281 37.8065L128.279 37.8142L129.237 38.1ZM129.237 17.4L128.279 17.6858L128.281 17.6935L128.283 17.7011L129.237 17.4ZM125.787 10.425L124.998 11.0389L125.003 11.0457L125.008 11.0523L125.787 10.425ZM120.912 6.525L120.494 7.43368L120.505 7.43838L120.515 7.44286L120.912 6.525ZM126.087 1.725L125.758 2.66939L125.771 2.67368L126.087 1.725ZM140.187 15.525L139.249 15.8732L139.253 15.8813L139.256 15.8894L140.187 15.525ZM140.187 40.05L139.254 39.6901L139.251 39.6974L140.187 40.05ZM134.637 48.675L135.329 49.397L134.637 48.675ZM126.087 53.85L126.403 54.7988L126.416 54.7943L126.087 53.85ZM104.337 53.85L104.008 54.7944L104.021 54.7987L104.337 53.85ZM95.7869 48.675L95.095 49.397L95.7869 48.675ZM90.1619 40.05L89.2245 40.3982L89.2275 40.4063L89.2307 40.4144L90.1619 40.05ZM90.1619 15.525L89.2289 15.1651L89.2261 15.1724L90.1619 15.525ZM95.7869 6.825L95.095 6.10301L95.7869 6.825ZM104.337 1.725L104.653 2.67377L104.666 2.6693L104.337 1.725ZM115.212 4.25C113.111 4.25 111.069 4.70887 109.094 5.61632L109.929 7.43368C111.654 6.64113 113.412 6.25 115.212 6.25V4.25ZM109.115 5.60714C107.095 6.48045 105.32 7.88996 103.783 9.79767L105.341 11.0523C106.704 9.36004 108.228 8.16954 109.909 7.44286L109.115 5.60714ZM103.773 9.81106C102.281 11.7288 101.084 14.1689 100.158 17.0989L102.065 17.7011C102.94 14.9311 104.043 12.7212 105.351 11.0389L103.773 9.81106ZM100.154 17.1142C99.268 20.0836 98.8369 23.6356 98.8369 27.75H100.837C100.837 23.7644 101.256 20.4164 102.07 17.6858L100.154 17.1142ZM98.8369 27.75C98.8369 31.8644 99.268 35.4164 100.154 38.3858L102.07 37.8142C101.256 35.0836 100.837 31.7356 100.837 27.75H98.8369ZM100.158 38.4011C101.084 41.3311 102.281 43.7712 103.773 45.6889L105.351 44.4611C104.043 42.7788 102.94 40.5689 102.065 37.7989L100.158 38.4011ZM103.783 45.7023C105.317 47.6064 107.086 49.0358 109.094 49.9587L109.929 48.1413C108.238 47.3642 106.707 46.1436 105.341 44.4477L103.783 45.7023ZM109.115 49.9679C111.086 50.8202 113.121 51.25 115.212 51.25V49.25C113.403 49.25 111.638 48.8798 109.909 48.1321L109.115 49.9679ZM115.212 51.25C117.303 51.25 119.338 50.8202 121.309 49.9679L120.515 48.1321C118.786 48.8798 117.021 49.25 115.212 49.25V51.25ZM121.329 49.9587C123.342 49.034 125.09 47.6002 126.576 45.6889L124.998 44.4611C123.684 46.1498 122.182 47.366 120.494 48.1413L121.329 49.9587ZM126.566 45.7023C128.117 43.7768 129.318 41.3261 130.195 38.3858L128.279 37.8142C127.456 40.5739 126.357 42.7732 125.008 44.4477L126.566 45.7023ZM130.19 38.4011C131.13 35.4261 131.587 31.8685 131.587 27.75H129.587C129.587 31.7315 129.144 35.0739 128.283 37.7989L130.19 38.4011ZM131.587 27.75C131.587 23.6315 131.13 20.0739 130.19 17.0989L128.283 17.7011C129.144 20.4261 129.587 23.7684 129.587 27.75H131.587ZM130.195 17.1142C129.318 14.1739 128.117 11.7232 126.566 9.79767L125.008 11.0523C126.357 12.7268 127.456 14.9261 128.279 17.6858L130.195 17.1142ZM126.576 9.81106C125.087 7.89606 123.332 6.48221 121.309 5.60714L120.515 7.44286C122.191 8.16778 123.687 9.35393 124.998 11.0389L126.576 9.81106ZM121.329 5.61632C119.354 4.70887 117.312 4.25 115.212 4.25V6.25C117.011 6.25 118.769 6.64113 120.494 7.43368L121.329 5.61632ZM115.212 0.999998C119.064 0.999998 122.576 1.56064 125.758 2.6693L126.416 0.780695C122.997 -0.410641 119.26 -1 115.212 -1V0.999998ZM125.771 2.67368C128.937 3.72909 131.657 5.3542 133.945 7.54699L135.329 6.10301C132.817 3.6958 129.837 1.92091 126.403 0.776314L125.771 2.67368ZM133.945 7.54699C136.223 9.73029 137.996 12.4972 139.249 15.8732L141.124 15.1768C139.778 11.5528 137.851 8.51971 135.329 6.10301L133.945 7.54699ZM139.256 15.8894C140.55 19.1967 141.212 23.1426 141.212 27.75H143.212C143.212 22.9574 142.524 18.7533 141.118 15.1606L139.256 15.8894ZM141.212 27.75C141.212 32.3569 140.55 36.3299 139.254 39.6901L141.12 40.4099C142.524 36.7701 143.212 32.5431 143.212 27.75H141.212ZM139.251 39.6974C137.998 43.023 136.226 45.7672 133.945 47.953L135.329 49.397C137.848 46.9828 139.776 43.977 141.123 40.4026L139.251 39.6974ZM133.945 47.953C131.654 50.1487 128.929 51.8004 125.758 52.9057L126.416 54.7943C129.844 53.5996 132.82 51.8013 135.329 49.397L133.945 47.953ZM125.771 52.9013C122.585 53.9631 119.069 54.5 115.212 54.5V56.5C119.255 56.5 122.988 55.9369 126.403 54.7987L125.771 52.9013ZM115.212 54.5C111.355 54.5 107.838 53.9631 104.653 52.9013L104.021 54.7987C107.435 55.9369 111.169 56.5 115.212 56.5V54.5ZM104.666 52.9057C101.494 51.8004 98.7699 50.1487 96.4788 47.953L95.095 49.397C97.6039 51.8013 100.579 53.5996 104.008 54.7943L104.666 52.9057ZM96.4788 47.953C94.195 45.7644 92.3964 43.016 91.0932 39.6856L89.2307 40.4144C90.6275 43.984 92.5788 46.9856 95.095 49.397L96.4788 47.953ZM91.0993 39.7018C89.8499 36.3379 89.2119 32.3606 89.2119 27.75H87.2119C87.2119 32.5394 87.8739 36.7621 89.2245 40.3982L91.0993 39.7018ZM89.2119 27.75C89.2119 23.1388 89.85 19.1887 91.0977 15.8776L89.2261 15.1724C87.8738 18.7613 87.2119 22.9612 87.2119 27.75H89.2119ZM91.0949 15.8849C92.3989 12.5041 94.1977 9.73311 96.4788 7.54699L95.095 6.10301C92.5762 8.51689 90.6249 11.5459 89.2289 15.1651L91.0949 15.8849ZM96.4788 7.54699C98.7669 5.3542 101.487 3.72909 104.653 2.67368L104.021 0.776316C100.587 1.92091 97.6069 3.6958 95.095 6.10301L96.4788 7.54699ZM104.666 2.6693C107.847 1.56064 111.36 0.999998 115.212 0.999998V-1C111.164 -1 107.426 -0.410641 104.008 0.780695L104.666 2.6693ZM175.985 27.375L175.421 26.5497L175.399 26.5645L175.378 26.5803L175.985 27.375ZM180.935 22.65L180.14 22.0433L180.138 22.0466L180.935 22.65ZM180.035 8.475L180.715 7.74157L180.035 8.475ZM160.46 7.2L160.772 8.15027L160.781 8.14714L160.46 7.2ZM151.61 12.375L150.81 12.975L151.452 13.8301L152.262 13.1333L151.61 12.375ZM148.235 7.875L147.583 7.11668L146.874 7.72656L147.435 8.475L148.235 7.875ZM158.285 2.1L157.947 1.15879L157.944 1.1602L158.285 2.1ZM188.96 4.34999L188.367 5.15505L188.379 5.1638L188.391 5.17219L188.96 4.34999ZM193.31 9.225L192.416 9.67224L192.421 9.6818L193.31 9.225ZM193.76 21.45L194.698 21.7982L194.701 21.7896L193.76 21.45ZM191.135 26.25L190.339 25.6456L190.332 25.6545L190.325 25.6635L191.135 26.25ZM187.46 30.225L188.111 30.9843L187.46 30.225ZM183.11 33.75L183.718 34.5444L183.719 34.5436L183.11 33.75ZM163.985 48.375L163.378 47.5806L161.031 49.375H163.985V48.375ZM195.485 48.375H196.485V47.375H195.485V48.375ZM195.485 54V55H196.485V54H195.485ZM148.985 54H147.985V55H148.985V54ZM148.985 48L148.378 47.2053L147.985 47.5055V48H148.985ZM176.55 28.2003C178.54 26.8389 180.268 25.1888 181.733 23.2534L180.138 22.0466C178.803 23.8112 177.231 25.3111 175.421 26.5497L176.55 28.2003ZM181.73 23.2567C183.317 21.1777 184.11 18.7883 184.11 16.125H182.11C182.11 18.3617 181.454 20.3223 180.14 22.0433L181.73 23.2567ZM184.11 16.125C184.11 12.6909 183 9.85898 180.715 7.74157L179.356 9.20843C181.171 10.891 182.11 13.1591 182.11 16.125H184.11ZM180.715 7.74157C178.408 5.60318 175.018 4.625 170.735 4.625V6.625C174.753 6.625 177.563 7.54682 179.356 9.20843L180.715 7.74157ZM170.735 4.625C166.892 4.625 163.357 5.16317 160.14 6.25286L160.781 8.14714C163.764 7.13683 167.079 6.625 170.735 6.625V4.625ZM160.149 6.24977C156.954 7.29712 153.891 9.0954 150.958 11.6167L152.262 13.1333C155.029 10.7546 157.866 9.10288 160.772 8.15023L160.149 6.24977ZM152.41 11.775L149.035 7.275L147.435 8.475L150.81 12.975L152.41 11.775ZM148.887 8.63332C151.638 6.26884 154.88 4.40224 158.627 3.03979L157.944 1.1602C153.99 2.59775 150.533 4.58116 147.583 7.11668L148.887 8.63332ZM158.623 3.04119C162.397 1.68648 166.68 0.999998 171.485 0.999998V-1C166.491 -1 161.974 -0.286486 157.947 1.1588L158.623 3.04119ZM171.485 0.999998C175.376 0.999998 178.713 1.36977 181.51 2.09314L182.011 0.156849C179.008 -0.61978 175.495 -1 171.485 -1V0.999998ZM181.51 2.09314C184.318 2.81943 186.594 3.84818 188.367 5.15505L189.554 3.54494C187.527 2.05181 185.002 0.930565 182.011 0.156849L181.51 2.09314ZM188.391 5.17219C190.219 6.43786 191.55 7.93943 192.416 9.67221L194.205 8.77779C193.171 6.71057 191.601 4.96213 189.53 3.5278L188.391 5.17219ZM192.421 9.6818C193.292 11.3791 193.735 13.2706 193.735 15.375H195.735C195.735 12.9794 195.228 10.7709 194.2 8.7682L192.421 9.6818ZM193.735 15.375C193.735 17.5291 193.424 19.4365 192.82 21.1104L194.701 21.7896C195.396 19.8635 195.735 17.7209 195.735 15.375H193.735ZM192.823 21.1018C192.206 22.7624 191.378 24.2757 190.339 25.6456L191.932 26.8544C193.093 25.3243 194.015 23.6376 194.698 21.7982L192.823 21.1018ZM190.325 25.6635C189.323 27.048 188.152 28.3153 186.81 29.4657L188.111 30.9843C189.569 29.7347 190.848 28.352 191.945 26.8365L190.325 25.6635ZM186.81 29.4657C185.424 30.6536 183.988 31.8172 182.502 32.9564L183.719 34.5436C185.233 33.3828 186.697 32.1964 188.111 30.9843L186.81 29.4657ZM182.503 32.9556L163.378 47.5806L164.593 49.1694L183.718 34.5444L182.503 32.9556ZM163.985 49.375H195.485V47.375H163.985V49.375ZM194.485 48.375V54H196.485V48.375H194.485ZM195.485 53H148.985V55H195.485V53ZM149.985 54V48H147.985V54H149.985ZM149.592 48.7947L176.592 28.1697L175.378 26.5803L148.378 47.2053L149.592 48.7947ZM227.768 27.375L227.203 26.5497L227.181 26.5645L227.161 26.5803L227.768 27.375ZM232.718 22.65L231.923 22.0433L231.92 22.0466L232.718 22.65ZM231.818 8.475L232.497 7.74157L231.818 8.475ZM212.243 7.2L212.554 8.15027L212.563 8.14714L212.243 7.2ZM203.393 12.375L202.593 12.975L203.234 13.8301L204.044 13.1333L203.393 12.375ZM200.018 7.875L199.366 7.11668L198.656 7.72656L199.218 8.475L200.018 7.875ZM210.068 2.1L209.73 1.15879L209.726 1.1602L210.068 2.1ZM240.743 4.34999L240.149 5.15505L240.161 5.1638L240.173 5.17219L240.743 4.34999ZM245.093 9.225L244.198 9.67224L244.203 9.6818L245.093 9.225ZM245.543 21.45L246.48 21.7982L246.483 21.7896L245.543 21.45ZM242.918 26.25L242.121 25.6456L242.114 25.6545L242.108 25.6635L242.918 26.25ZM239.243 30.225L239.893 30.9843L239.243 30.225ZM234.893 33.75L235.5 34.5444L235.501 34.5436L234.893 33.75ZM215.768 48.375L215.16 47.5806L212.814 49.375H215.768V48.375ZM247.268 48.375H248.268V47.375H247.268V48.375ZM247.268 54V55H248.268V54H247.268ZM200.768 54H199.768V55H200.768V54ZM200.768 48L200.161 47.2053L199.768 47.5055V48H200.768ZM228.332 28.2003C230.322 26.8389 232.05 25.1888 233.515 23.2534L231.92 22.0466C230.585 23.8112 229.013 25.3111 227.203 26.5497L228.332 28.2003ZM233.513 23.2567C235.099 21.1777 235.893 18.7883 235.893 16.125H233.893C233.893 18.3617 233.236 20.3223 231.923 22.0433L233.513 23.2567ZM235.893 16.125C235.893 12.6909 234.782 9.85898 232.497 7.74157L231.138 9.20843C232.953 10.891 233.893 13.1591 233.893 16.125H235.893ZM232.497 7.74157C230.19 5.60318 226.8 4.625 222.518 4.625V6.625C226.535 6.625 229.345 7.54682 231.138 9.20843L232.497 7.74157ZM222.518 4.625C218.674 4.625 215.139 5.16317 211.922 6.25286L212.563 8.14714C215.546 7.13683 218.861 6.625 222.518 6.625V4.625ZM211.931 6.24977C208.737 7.29712 205.674 9.0954 202.741 11.6167L204.044 13.1333C206.812 10.7546 209.649 9.10288 212.554 8.15023L211.931 6.24977ZM204.193 11.775L200.818 7.275L199.218 8.475L202.593 12.975L204.193 11.775ZM200.669 8.63332C203.42 6.26884 206.663 4.40224 210.409 3.03979L209.726 1.1602C205.773 2.59775 202.315 4.58116 199.366 7.11668L200.669 8.63332ZM210.405 3.04119C214.179 1.68648 218.462 0.999998 223.268 0.999998V-1C218.273 -1 213.756 -0.286486 209.73 1.1588L210.405 3.04119ZM223.268 0.999998C227.158 0.999998 230.495 1.36977 233.292 2.09314L233.793 0.156849C230.79 -0.61978 227.277 -1 223.268 -1V0.999998ZM233.292 2.09314C236.1 2.81943 238.376 3.84818 240.149 5.15505L241.336 3.54494C239.309 2.05181 236.785 0.930565 233.793 0.156849L233.292 2.09314ZM240.173 5.17219C242.002 6.43786 243.332 7.93943 244.198 9.67221L245.987 8.77779C244.953 6.71057 243.384 4.96213 241.312 3.5278L240.173 5.17219ZM244.203 9.6818C245.075 11.3791 245.518 13.2706 245.518 15.375H247.518C247.518 12.9794 247.011 10.7709 245.982 8.7682L244.203 9.6818ZM245.518 15.375C245.518 17.5291 245.206 19.4365 244.602 21.1104L246.483 21.7896C247.179 19.8635 247.518 17.7209 247.518 15.375H245.518ZM244.605 21.1018C243.988 22.7624 243.16 24.2757 242.121 25.6456L243.714 26.8544C244.875 25.3243 245.797 23.6376 246.48 21.7982L244.605 21.1018ZM242.108 25.6635C241.105 27.048 239.934 28.3153 238.592 29.4657L239.893 30.9843C241.351 29.7347 242.63 28.352 243.728 26.8365L242.108 25.6635ZM238.592 29.4657C237.206 30.6536 235.77 31.8172 234.284 32.9564L235.501 34.5436C237.015 33.3828 238.479 32.1964 239.893 30.9843L238.592 29.4657ZM234.285 32.9556L215.16 47.5806L216.375 49.1694L235.5 34.5444L234.285 32.9556ZM215.768 49.375H247.268V47.375H215.768V49.375ZM246.268 48.375V54H248.268V48.375H246.268ZM247.268 53H200.768V55H247.268V53ZM201.768 54V48H199.768V54H201.768ZM201.375 48.7947L228.375 28.1697L227.161 26.5803L200.161 47.2053L201.375 48.7947Z" fill="#F15443" fill-opacity="0.5"/>
</svg>
